  0
SECTION
  2
HEADER
  9
$ACADVER
  1
AC1009
  9
$INSBASE
 10
0.0
 20
0.0
 30
0.0
  9
$EXTMIN
 10
0.0
 20
0.0
 30
0.0
  9
$EXTMAX
 10
1189.0
 20
841.00000000000045
 30
0.0
  9
$LIMMIN
 10
0.0
 20
0.0
  9
$LIMMAX
 10
1189.0
 20
841.0
  9
$ORTHOMODE
 70
     0
  9
$REGENMODE
 70
     1
  9
$FILLMODE
 70
     1
  9
$QTEXTMODE
 70
     0
  9
$MIRRTEXT
 70
     1
  9
$DRAGMODE
 70
     2
  9
$LTSCALE
 40
1.0
  9
$OSMODE
 70
    37
  9
$ATTMODE
 70
     1
  9
$TEXTSIZE
 40
3.5
  9
$TRACEWID
 40
1.0
  9
$TEXTSTYLE
  7
STANDARD
  9
$CLAYER
  8
0
  9
$CELTYPE
  6
BYLAYER
  9
$CECOLOR
 62
   256
  9
$DIMSCALE
 40
1.0
  9
$DIMASZ
 40
4.0800000000000001
  9
$DIMEXO
 40
0.0
  9
$DIMDLI
 40
3.75
  9
$DIMRND
 40
0.0
  9
$DIMDLE
 40
0.0
  9
$DIMEXE
 40
2.0
  9
$DIMTP
 40
0.0
  9
$DIMTM
 40
0.0
  9
$DIMTXT
 40
3.5
  9
$DIMCEN
 40
2.5
  9
$DIMTSZ
 40
0.0
  9
$DIMTOL
 70
     0
  9
$DIMLIM
 70
     0
  9
$DIMTIH
 70
     1
  9
$DIMTOH
 70
     1
  9
$DIMSE1
 70
     0
  9
$DIMSE2
 70
     0
  9
$DIMTAD
 70
     1
  9
$DIMZIN
 70
     0
  9
$DIMBLK
  1

  9
$DIMASO
 70
     1
  9
$DIMSHO
 70
     1
  9
$DIMPOST
  1

  9
$DIMAPOST
  1

  9
$DIMALT
 70
     0
  9
$DIMALTD
 70
     3
  9
$DIMALTF
 40
0.0393700787401575
  9
$DIMLFAC
 40
0.5
  9
$DIMTOFL
 70
     1
  9
$DIMTVP
 40
0.0
  9
$DIMTIX
 70
     0
  9
$DIMSOXD
 70
     0
  9
$DIMSAH
 70
     0
  9
$DIMBLK1
  1

  9
$DIMBLK2
  1

  9
$DIMSTYLE
  2
ISO-25
  9
$DIMCLRD
 70
     0
  9
$DIMCLRE
 70
     0
  9
$DIMCLRT
 70
     0
  9
$DIMTFAC
 40
1.0
  9
$DIMGAP
 40
1.524
  9
$LUNITS
 70
     2
  9
$LUPREC
 70
     2
  9
$SKETCHINC
 40
1.0
  9
$FILLETRAD
 40
10.0
  9
$AUNITS
 70
     0
  9
$AUPREC
 70
     2
  9
$MENU
  1
.
  9
$ELEVATION
 40
0.0
  9
$PELEVATION
 40
0.0
  9
$THICKNESS
 40
0.0
  9
$LIMCHECK
 70
     0
  9
$BLIPMODE
 70
     0
  9
$CHAMFERA
 40
0.0
  9
$CHAMFERB
 40
0.0
  9
$SKPOLY
 70
     0
  9
$TDCREATE
 40
2458498.833735371
  9
$TDUPDATE
 40
2458498.8352698502
  9
$TDINDWG
 40
0.001799294
  9
$TDUSRTIMER
 40
0.001799294
  9
$USRTIMER
 70
     1
  9
$ANGBASE
 50
0.0
  9
$ANGDIR
 70
     0
  9
$PDMODE
 70
     0
  9
$PDSIZE
 40
-1.0
  9
$PLINEWID
 40
0.0
  9
$COORDS
 70
     1
  9
$SPLFRAME
 70
     0
  9
$SPLINETYPE
 70
     6
  9
$SPLINESEGS
 70
     8
  9
$ATTDIA
 70
     0
  9
$ATTREQ
 70
     1
  9
$HANDLING
 70
     1
  9
$HANDSEED
  5
2A0
  9
$SURFTAB1
 70
     6
  9
$SURFTAB2
 70
     6
  9
$SURFTYPE
 70
     6
  9
$SURFU
 70
     6
  9
$SURFV
 70
     6
  9
$UCSNAME
  2

  9
$UCSORG
 10
0.0
 20
0.0
 30
0.0
  9
$UCSXDIR
 10
1.0
 20
0.0
 30
0.0
  9
$UCSYDIR
 10
0.0
 20
1.0
 30
0.0
  9
$PUCSNAME
  2

  9
$PUCSORG
 10
0.0
 20
0.0
 30
0.0
  9
$PUCSXDIR
 10
1.0
 20
0.0
 30
0.0
  9
$PUCSYDIR
 10
0.0
 20
1.0
 30
0.0
  9
$USERI1
 70
     0
  9
$USERI2
 70
     0
  9
$USERI3
 70
     0
  9
$USERI4
 70
     0
  9
$USERI5
 70
     0
  9
$USERR1
 40
0.0
  9
$USERR2
 40
0.0
  9
$USERR3
 40
0.0
  9
$USERR4
 40
0.0
  9
$USERR5
 40
0.0
  9
$WORLDVIEW
 70
     1
  9
$SHADEDGE
 70
     3
  9
$SHADEDIF
 70
    70
  9
$TILEMODE
 70
     1
  9
$MAXACTVP
 70
    64
  9
$PLIMCHECK
 70
     0
  9
$PEXTMIN
 10
1.0000000000000000E+020
 20
1.0000000000000000E+020
 30
1.0000000000000000E+020
  9
$PEXTMAX
 10
-1.0000000000000000E+020
 20
-1.0000000000000000E+020
 30
-1.0000000000000000E+020
  9
$PLIMMIN
 10
0.0
 20
0.0
  9
$PLIMMAX
 10
420.0
 20
297.0
  9
$UNITMODE
 70
     0
  9
$VISRETAIN
 70
     1
  9
$PLINEGEN
 70
     0
  9
$PSLTSCALE
 70
     1
  0
ENDSEC
  0
SECTION
  2
TABLES
  0
TABLE
  2
VPORT
 70
     1
  0
VPORT
  2
*ACTIVE
 70
     0
 10
0.0
 20
0.0
 11
1.0
 21
1.0
 12
525.20259543678947
 22
540.43254562367952
 13
0.0
 23
0.0
 14
10.0
 24
10.0
 15
10.0
 25
10.0
 16
0.0
 26
0.0
 36
1.0
 17
0.0
 27
0.0
 37
0.0
 40
221.556009779737
 41
2.4982269503546091
 42
50.0
 43
0.0
 44
0.0
 50
0.0
 51
0.0
 71
     0
 72
  2000
 73
     1
 74
     3
 75
     0
 76
     0
 77
     0
 78
     0
  0
ENDTAB
  0
TABLE
  2
LTYPE
 70
     6
  0
LTYPE
  2
CONTINUOUS
 70
     0
  3
Solid line
 72
    65
 73
     0
 40
0.0
  0
LTYPE
  2
HIDDEN
 70
     0
  3
Hidden __ __ __ __ __ __ __ __ __ __ __ __ __ __
 72
    65
 73
     2
 40
1.905
 49
1.27
 49
-0.635
  0
LTYPE
  2
PHANTOM
 70
     0
  3
Phantom ______  __  __  ______  __  __  ______
 72
    65
 73
     6
 40
12.699999999999999
 49
6.3499999999999988
 49
-1.27
 49
1.27
 49
-1.27
 49
1.27
 49
-1.27
  0
LTYPE
  2
CENTER
 70
     0
  3
Center ____ _ ____ _ ____ _ ____ _ ____ _ ____
 72
    65
 73
     4
 40
10.16
 49
6.3499999999999988
 49
-1.27
 49
1.27
 49
-1.27
  0
LTYPE
  2
CENTERX2
 70
     0
  3
Center (2x) ________  __  ________  __  _____
 72
    65
 73
     4
 40
20.32
 49
12.699999999999999
 49
-2.54
 49
2.54
 49
-2.54
  0
LTYPE
  2
DOT2
 70
     0
  3
Dot (.5x) ........................................
 72
    65
 73
     2
 40
0.635
 49
0.0
 49
-0.635
  0
ENDTAB
  0
TABLE
  2
LAYER
 70
    18
  0
LAYER
  2
0
 70
     0
 62
     7
  6
CONTINUOUS
  0
LAYER
  2
SLD-0
 70
     0
 62
     7
  6
CONTINUOUS
  0
LAYER
  2
10
 70
     0
 62
     7
  6
CONTINUOUS
  0
LAYER
  2
5
 70
     0
 62
     7
  6
CONTINUOUS
  0
LAYER
  2
9
 70
     0
 62
     7
  6
CONTINUOUS
  0
LAYER
  2
轮廓实线层
 70
     0
 62
     7
  6
CONTINUOUS
  0
LAYER
  2
细线层
 70
     0
 62
     4
  6
CONTINUOUS
  0
LAYER
  2
中心线层
 70
     0
 62
     1
  6
CENTERX2
  0
LAYER
  2
虚线层
 70
     0
 62
     6
  6
HIDDEN
  0
LAYER
  2
剖面线层
 70
     0
 62
     2
  6
CONTINUOUS
  0
LAYER
  2
文字层
 70
     0
 62
     3
  6
CONTINUOUS
  0
LAYER
  2
标注层
 70
     0
 62
     4
  6
CONTINUOUS
  0
LAYER
  2
符号标注层
 70
     0
 62
    31
  6
CONTINUOUS
  0
LAYER
  2
双点划线层
 70
     0
 62
     6
  6
PHANTOM
  0
LAYER
  2
粗实线层
 70
     0
 62
     7
  6
CONTINUOUS
  0
LAYER
  2
细实线层
 70
     0
 62
     7
  6
CONTINUOUS
  0
LAYER
  2
点划线层
 70
     0
 62
     7
  6
CENTER
  0
LAYER
  2
图框
 70
     0
 62
     7
  6
CONTINUOUS
  0
ENDTAB
  0
TABLE
  2
STYLE
 70
     7
  0
STYLE
  2
STANDARD
 70
     0
 40
0.0
 41
1.0
 50
0.0
 71
     0
 42
3.5
  3
txt
  4

  0
STYLE
  2
SLDTEXTSTYLE0
 70
     0
 40
0.0
 41
0.7
 50
0.0
 71
     0
 42
3.5
  3
TXT
  4
bigfont
  0
STYLE
  2
SLDTEXTSTYLE1
 70
     0
 40
0.0
 41
0.6
 50
0.0
 71
     0
 42
3.5
  3
TXT
  4
bigfont
  0
STYLE
  2
SLDTEXTSTYLE2
 70
     0
 40
0.0
 41
0.6142857142857144
 50
0.0
 71
     0
 42
3.5
  3
TXT
  4
bigfont
  0
STYLE
  2
SLDTEXTSTYLE3
 70
     0
 40
0.0
 41
0.62
 50
0.0
 71
     0
 42
3.5
  3
TXT
  4
bigfont
  0
STYLE
  2
SLDTEXTSTYLE4
 70
     0
 40
0.0
 41
0.5666666666666668
 50
0.0
 71
     0
 42
3.5
  3
TXT
  4
bigfont
  0
STYLE
  2
SLDTEXTSTYLE5
 70
     0
 40
0.0
 41
0.7
 50
0.0
 71
     0
 42
3.5
  3
TXT
  4

  0
ENDTAB
  0
TABLE
  2
VIEW
 70
     0
  0
ENDTAB
  0
TABLE
  2
UCS
 70
     0
  0
ENDTAB
  0
TABLE
  2
APPID
 70
     1
  0
APPID
  2
ACAD
 70
     0
  0
ENDTAB
  0
TABLE
  2
DIMSTYLE
 70
     1
  0
DIMSTYLE
  2
ISO-25
 70
     0
  3

  4

  5

  6

  7

 40
1.0
 41
2.5
 42
0.625
 43
3.75
 44
1.25
 45
0.0
 46
0.0
 47
0.0
 48
0.0
140
2.5
141
2.5
142
0.0
143
0.03937007874016
144
1.0
145
0.0
146
1.0
147
0.625
 71
     0
 72
     0
 73
     0
 74
     0
 75
     0
 76
     0
 77
     1
 78
     8
170
     0
171
     3
172
     1
173
     0
174
     0
175
     0
176
     0
177
     0
178
     0
  0
ENDTAB
  0
ENDSEC
  0
SECTION
  2
BLOCKS
  0
BLOCK
  8
0
  2
$MODEL_SPACE
 70
     0
 10
0.0
 20
0.0
 30
0.0
  3
$MODEL_SPACE
  1

  0
ENDBLK
  5
21
  8
0
  0
BLOCK
 67
     1
  8
0
  2
$PAPER_SPACE
 70
     0
 10
0.0
 20
0.0
 30
0.0
  3
$PAPER_SPACE
  1

  0
ENDBLK
  5
1D
 67
     1
  8
0
  0
BLOCK
  8
0
  2
SW_CENTERMARKSYMBOL_0
 70
     0
 10
0.0
 20
0.0
 30
0.0
  3
SW_CENTERMARKSYMBOL_0
  1

  0
LINE
  5
1C3
  8
10
 62
     0
 10
0.0
 20
0.0
 30
0.0
 11
0.0
 21
5.0000000000000044
 31
0.0
  0
LINE
  5
1C4
  8
10
 62
     0
 10
0.0
 20
0.0
 30
0.0
 11
-5.0000000000000044
 21
0.0
 31
0.0
  0
LINE
  5
1C5
  8
10
 62
     0
 10
0.0
 20
0.0
 30
0.0
 11
0.0
 21
-5.0000000000000044
 31
0.0
  0
LINE
  5
1C6
  8
10
 62
     0
 10
0.0
 20
0.0
 30
0.0
 11
5.0000000000000044
 21
0.0
 31
0.0
  0
LINE
  5
1C7
  8
10
 62
     0
 10
0.0
 20
5.0000000000000044
 30
0.0
 11
0.0
 21
8.0000000000000071
 31
0.0
  0
LINE
  5
1C8
  8
10
 62
     0
 10
-5.0000000000000044
 20
0.0
 30
0.0
 11
-8.0000000000000071
 21
0.0
 31
0.0
  0
LINE
  5
1C9
  8
10
 62
     0
 10
0.0
 20
-5.0000000000000044
 30
0.0
 11
0.0
 21
-8.0000000000000071
 31
0.0
  0
LINE
  5
1CA
  8
10
 62
     0
 10
5.0000000000000044
 20
0.0
 30
0.0
 11
8.0000000000000071
 21
0.0
 31
0.0
  0
ENDBLK
  5
1C2
  8
0
  0
BLOCK
  8
0
  2
SW_CENTERMARKSYMBOL_1
 70
     0
 10
0.0
 20
0.0
 30
0.0
  3
SW_CENTERMARKSYMBOL_1
  1

  0
LINE
  5
1CF
  8
10
 62
     0
 10
0.0
 20
0.0
 30
0.0
 11
0.0
 21
5.0000000000000044
 31
0.0
  0
LINE
  5
1D0
  8
10
 62
     0
 10
0.0
 20
0.0
 30
0.0
 11
-5.0000000000000044
 21
0.0
 31
0.0
  0
LINE
  5
1D1
  8
10
 62
     0
 10
0.0
 20
0.0
 30
0.0
 11
0.0
 21
-5.0000000000000044
 31
0.0
  0
LINE
  5
1D2
  8
10
 62
     0
 10
0.0
 20
0.0
 30
0.0
 11
5.0000000000000044
 21
0.0
 31
0.0
  0
LINE
  5
1D3
  8
10
 62
     0
 10
0.0
 20
5.0000000000000044
 30
0.0
 11
0.0
 21
8.0000000000000071
 31
0.0
  0
LINE
  5
1D4
  8
10
 62
     0
 10
-5.0000000000000044
 20
0.0
 30
0.0
 11
-8.0000000000000071
 21
0.0
 31
0.0
  0
LINE
  5
1D5
  8
10
 62
     0
 10
0.0
 20
-5.0000000000000044
 30
0.0
 11
0.0
 21
-8.0000000000000071
 31
0.0
  0
LINE
  5
1D6
  8
10
 62
     0
 10
5.0000000000000044
 20
0.0
 30
0.0
 11
8.0000000000000071
 21
0.0
 31
0.0
  0
ENDBLK
  5
1CE
  8
0
  0
BLOCK
  8
0
  2
SW_CENTERMARKSYMBOL_2
 70
     0
 10
0.0
 20
0.0
 30
0.0
  3
SW_CENTERMARKSYMBOL_2
  1

  0
LINE
  5
1DB
  8
10
 62
     0
 10
0.0
 20
0.0
 30
0.0
 11
0.0
 21
5.0000000000000044
 31
0.0
  0
LINE
  5
1DC
  8
10
 62
     0
 10
0.0
 20
0.0
 30
0.0
 11
-4.9999999999998934
 21
0.0
 31
0.0
  0
LINE
  5
1DD
  8
10
 62
     0
 10
0.0
 20
0.0
 30
0.0
 11
0.0
 21
-5.0000000000000044
 31
0.0
  0
LINE
  5
1DE
  8
10
 62
     0
 10
0.0
 20
0.0
 30
0.0
 11
5.0000000000001146
 21
0.0
 31
0.0
  0
LINE
  5
1DF
  8
10
 62
     0
 10
0.0
 20
5.0000000000000044
 30
0.0
 11
0.0
 21
8.0000000000000071
 31
0.0
  0
LINE
  5
1E0
  8
10
 62
     0
 10
-4.9999999999998934
 20
0.0
 30
0.0
 11
-7.9999999999998961
 21
0.0
 31
0.0
  0
LINE
  5
1E1
  8
10
 62
     0
 10
0.0
 20
-5.0000000000000044
 30
0.0
 11
0.0
 21
-7.9999999999998961
 31
0.0
  0
LINE
  5
1E2
  8
10
 62
     0
 10
5.0000000000001146
 20
0.0
 30
0.0
 11
8.0000000000000071
 21
0.0
 31
0.0
  0
ENDBLK
  5
1DA
  8
0
  0
BLOCK
  8
0
  2
SW_CENTERMARKSYMBOL_3
 70
     0
 10
0.0
 20
0.0
 30
0.0
  3
SW_CENTERMARKSYMBOL_3
  1

  0
LINE
  5
1E7
  8
10
 62
     0
 10
0.0
 20
0.0
 30
0.0
 11
0.0
 21
5.0000000000000044
 31
0.0
  0
LINE
  5
1E8
  8
10
 62
     0
 10
0.0
 20
0.0
 30
0.0
 11
-5.0000000000000044
 21
0.0
 31
0.0
  0
LINE
  5
1E9
  8
10
 62
     0
 10
0.0
 20
0.0
 30
0.0
 11
0.0
 21
-5.0000000000000044
 31
0.0
  0
LINE
  5
1EA
  8
10
 62
     0
 10
0.0
 20
0.0
 30
0.0
 11
5.0000000000000044
 21
0.0
 31
0.0
  0
LINE
  5
1EB
  8
10
 62
     0
 10
0.0
 20
5.0000000000000044
 30
0.0
 11
0.0
 21
8.0000000000000071
 31
0.0
  0
LINE
  5
1EC
  8
10
 62
     0
 10
-5.0000000000000044
 20
0.0
 30
0.0
 11
-8.0000000000000071
 21
0.0
 31
0.0
  0
LINE
  5
1ED
  8
10
 62
     0
 10
0.0
 20
-5.0000000000000044
 30
0.0
 11
0.0
 21
-8.0000000000000071
 31
0.0
  0
LINE
  5
1EE
  8
10
 62
     0
 10
5.0000000000000044
 20
0.0
 30
0.0
 11
8.0000000000000071
 21
0.0
 31
0.0
  0
ENDBLK
  5
1E6
  8
0
  0
BLOCK
  8
0
  2
SW_CENTERMARKSYMBOL_4
 70
     0
 10
0.0
 20
0.0
 30
0.0
  3
SW_CENTERMARKSYMBOL_4
  1

  0
LINE
  5
1F3
  8
10
 62
     0
 10
0.0
 20
0.0
 30
0.0
 11
0.0
 21
4.9999999999999476
 31
0.0
  0
LINE
  5
1F4
  8
10
 62
     0
 10
0.0
 20
0.0
 30
0.0
 11
-5.0000000000000044
 21
0.0
 31
0.0
  0
LINE
  5
1F5
  8
10
 62
     0
 10
0.0
 20
0.0
 30
0.0
 11
0.0
 21
-5.0000000000000044
 31
0.0
  0
LINE
  5
1F6
  8
10
 62
     0
 10
0.0
 20
0.0
 30
0.0
 11
5.0000000000000044
 21
0.0
 31
0.0
  0
LINE
  5
1F7
  8
10
 62
     0
 10
0.0
 20
4.9999999999999476
 30
0.0
 11
0.0
 21
7.999999999999952
 31
0.0
  0
LINE
  5
1F8
  8
10
 62
     0
 10
-5.0000000000000044
 20
0.0
 30
0.0
 11
-8.0000000000000071
 21
0.0
 31
0.0
  0
LINE
  5
1F9
  8
10
 62
     0
 10
0.0
 20
-5.0000000000000044
 30
0.0
 11
0.0
 21
-8.0000000000000071
 31
0.0
  0
LINE
  5
1FA
  8
10
 62
     0
 10
5.0000000000000044
 20
0.0
 30
0.0
 11
8.0000000000000071
 21
0.0
 31
0.0
  0
ENDBLK
  5
1F2
  8
0
  0
BLOCK
  8
0
  2
SW_CENTERMARKSYMBOL_5
 70
     0
 10
0.0
 20
0.0
 30
0.0
  3
SW_CENTERMARKSYMBOL_5
  1

  0
LINE
  5
1FF
  8
10
 62
     0
 10
0.0
 20
0.0
 30
0.0
 11
0.0
 21
5.0000000000000044
 31
0.0
  0
LINE
  5
200
  8
10
 62
     0
 10
0.0
 20
0.0
 30
0.0
 11
-5.0000000000000044
 21
0.0
 31
0.0
  0
LINE
  5
201
  8
10
 62
     0
 10
0.0
 20
0.0
 30
0.0
 11
0.0
 21
-5.0000000000000044
 31
0.0
  0
LINE
  5
202
  8
10
 62
     0
 10
0.0
 20
0.0
 30
0.0
 11
5.0000000000000044
 21
0.0
 31
0.0
  0
LINE
  5
203
  8
10
 62
     0
 10
0.0
 20
5.0000000000000044
 30
0.0
 11
0.0
 21
8.0000000000000071
 31
0.0
  0
LINE
  5
204
  8
10
 62
     0
 10
-5.0000000000000044
 20
0.0
 30
0.0
 11
-7.9999999999999787
 21
0.0
 31
0.0
  0
LINE
  5
205
  8
10
 62
     0
 10
0.0
 20
-5.0000000000000044
 30
0.0
 11
0.0
 21
-8.0000000000000071
 31
0.0
  0
LINE
  5
206
  8
10
 62
     0
 10
5.0000000000000044
 20
0.0
 30
0.0
 11
7.9999999999999787
 21
0.0
 31
0.0
  0
ENDBLK
  5
1FE
  8
0
  0
BLOCK
  8
0
  2
SW_CENTERMARKSYMBOL_6
 70
     0
 10
0.0
 20
0.0
 30
0.0
  3
SW_CENTERMARKSYMBOL_6
  1

  0
LINE
  5
20B
  8
10
 62
     0
 10
0.0
 20
0.0
 30
0.0
 11
0.0
 21
5.0000000000000044
 31
0.0
  0
LINE
  5
20C
  8
10
 62
     0
 10
0.0
 20
0.0
 30
0.0
 11
-5.0000000000000044
 21
0.0
 31
0.0
  0
LINE
  5
20D
  8
10
 62
     0
 10
0.0
 20
0.0
 30
0.0
 11
0.0
 21
-5.0000000000000044
 31
0.0
  0
LINE
  5
20E
  8
10
 62
     0
 10
0.0
 20
0.0
 30
0.0
 11
5.0000000000000044
 21
0.0
 31
0.0
  0
LINE
  5
20F
  8
10
 62
     0
 10
0.0
 20
5.0000000000000044
 30
0.0
 11
0.0
 21
8.0000000000000071
 31
0.0
  0
LINE
  5
210
  8
10
 62
     0
 10
-5.0000000000000044
 20
0.0
 30
0.0
 11
-8.0000000000000071
 21
0.0
 31
0.0
  0
LINE
  5
211
  8
10
 62
     0
 10
0.0
 20
-5.0000000000000044
 30
0.0
 11
0.0
 21
-8.0000000000000071
 31
0.0
  0
LINE
  5
212
  8
10
 62
     0
 10
5.0000000000000044
 20
0.0
 30
0.0
 11
8.0000000000000071
 21
0.0
 31
0.0
  0
ENDBLK
  5
20A
  8
0
  0
BLOCK
  8
0
  2
SW_CENTERMARKSYMBOL_7
 70
     0
 10
0.0
 20
0.0
 30
0.0
  3
SW_CENTERMARKSYMBOL_7
  1

  0
LINE
  5
217
  8
10
 62
     0
 10
0.0
 20
0.0
 30
0.0
 11
0.0
 21
5.0000000000000044
 31
0.0
  0
LINE
  5
218
  8
10
 62
     0
 10
0.0
 20
0.0
 30
0.0
 11
-5.0000000000000044
 21
0.0
 31
0.0
  0
LINE
  5
219
  8
10
 62
     0
 10
0.0
 20
0.0
 30
0.0
 11
0.0
 21
-5.0000000000000044
 31
0.0
  0
LINE
  5
21A
  8
10
 62
     0
 10
0.0
 20
0.0
 30
0.0
 11
5.0000000000000044
 21
0.0
 31
0.0
  0
LINE
  5
21B
  8
10
 62
     0
 10
0.0
 20
5.0000000000000044
 30
0.0
 11
0.0
 21
8.0000000000000071
 31
0.0
  0
LINE
  5
21C
  8
10
 62
     0
 10
-5.0000000000000044
 20
0.0
 30
0.0
 11
-8.0000000000000071
 21
0.0
 31
0.0
  0
LINE
  5
21D
  8
10
 62
     0
 10
0.0
 20
-5.0000000000000044
 30
0.0
 11
0.0
 21
-8.0000000000000071
 31
0.0
  0
LINE
  5
21E
  8
10
 62
     0
 10
5.0000000000000044
 20
0.0
 30
0.0
 11
8.0000000000000071
 21
0.0
 31
0.0
  0
ENDBLK
  5
216
  8
0
  0
BLOCK
  8
0
  2
SW_CENTERMARKSYMBOL_8
 70
     0
 10
0.0
 20
0.0
 30
0.0
  3
SW_CENTERMARKSYMBOL_8
  1

  0
LINE
  5
223
  8
10
 62
     0
 10
0.0
 20
0.0
 30
0.0
 11
0.0
 21
5.0000000000000044
 31
0.0
  0
LINE
  5
224
  8
10
 62
     0
 10
0.0
 20
0.0
 30
0.0
 11
-4.9999999999999476
 21
0.0
 31
0.0
  0
LINE
  5
225
  8
10
 62
     0
 10
0.0
 20
0.0
 30
0.0
 11
0.0
 21
-5.0000000000000044
 31
0.0
  0
LINE
  5
226
  8
10
 62
     0
 10
0.0
 20
0.0
 30
0.0
 11
5.0000000000000044
 21
0.0
 31
0.0
  0
LINE
  5
227
  8
10
 62
     0
 10
0.0
 20
5.0000000000000044
 30
0.0
 11
0.0
 21
8.0000000000000071
 31
0.0
  0
LINE
  5
228
  8
10
 62
     0
 10
-4.9999999999999476
 20
0.0
 30
0.0
 11
-8.0000000000000071
 21
0.0
 31
0.0
  0
LINE
  5
229
  8
10
 62
     0
 10
0.0
 20
-5.0000000000000044
 30
0.0
 11
0.0
 21
-8.0000000000000071
 31
0.0
  0
LINE
  5
22A
  8
10
 62
     0
 10
5.0000000000000044
 20
0.0
 30
0.0
 11
8.0000000000000071
 21
0.0
 31
0.0
  0
ENDBLK
  5
222
  8
0
  0
BLOCK
  8
0
  2
SW_CENTERMARKSYMBOL_9
 70
     0
 10
0.0
 20
0.0
 30
0.0
  3
SW_CENTERMARKSYMBOL_9
  1

  0
LINE
  5
22F
  8
10
 62
     0
 10
0.0
 20
0.0
 30
0.0
 11
0.0
 21
5.0000000000000044
 31
0.0
  0
LINE
  5
230
  8
10
 62
     0
 10
0.0
 20
0.0
 30
0.0
 11
-5.0000000000000044
 21
0.0
 31
0.0
  0
LINE
  5
231
  8
10
 62
     0
 10
0.0
 20
0.0
 30
0.0
 11
0.0
 21
-5.0000000000000044
 31
0.0
  0
LINE
  5
232
  8
10
 62
     0
 10
0.0
 20
0.0
 30
0.0
 11
5.0000000000000044
 21
0.0
 31
0.0
  0
LINE
  5
233
  8
10
 62
     0
 10
0.0
 20
5.0000000000000044
 30
0.0
 11
0.0
 21
8.0000000000000071
 31
0.0
  0
LINE
  5
234
  8
10
 62
     0
 10
-5.0000000000000044
 20
0.0
 30
0.0
 11
-8.0000000000000071
 21
0.0
 31
0.0
  0
LINE
  5
235
  8
10
 62
     0
 10
0.0
 20
-5.0000000000000044
 30
0.0
 11
0.0
 21
-8.0000000000000071
 31
0.0
  0
LINE
  5
236
  8
10
 62
     0
 10
5.0000000000000044
 20
0.0
 30
0.0
 11
8.0000000000000071
 21
0.0
 31
0.0
  0
ENDBLK
  5
22E
  8
0
  0
BLOCK
  8
0
  2
SW_CENTERMARKSYMBOL_10
 70
     0
 10
0.0
 20
0.0
 30
0.0
  3
SW_CENTERMARKSYMBOL_10
  1

  0
LINE
  5
23B
  8
10
 62
     0
 10
0.0
 20
0.0
 30
0.0
 11
0.0
 21
5.0000000000000044
 31
0.0
  0
LINE
  5
23C
  8
10
 62
     0
 10
0.0
 20
0.0
 30
0.0
 11
-5.0000000000000044
 21
0.0
 31
0.0
  0
LINE
  5
23D
  8
10
 62
     0
 10
0.0
 20
0.0
 30
0.0
 11
0.0
 21
-5.0000000000000044
 31
0.0
  0
LINE
  5
23E
  8
10
 62
     0
 10
0.0
 20
0.0
 30
0.0
 11
4.999999999999976
 21
0.0
 31
0.0
  0
LINE
  5
23F
  8
10
 62
     0
 10
0.0
 20
5.0000000000000044
 30
0.0
 11
0.0
 21
8.0000000000000071
 31
0.0
  0
LINE
  5
240
  8
10
 62
     0
 10
-5.0000000000000044
 20
0.0
 30
0.0
 11
-8.0000000000000071
 21
0.0
 31
0.0
  0
LINE
  5
241
  8
10
 62
     0
 10
0.0
 20
-5.0000000000000044
 30
0.0
 11
0.0
 21
-8.0000000000000071
 31
0.0
  0
LINE
  5
242
  8
10
 62
     0
 10
4.999999999999976
 20
0.0
 30
0.0
 11
7.9999999999999787
 21
0.0
 31
0.0
  0
ENDBLK
  5
23A
  8
0
  0
BLOCK
  8
0
  2
SW_CENTERMARKSYMBOL_11
 70
     0
 10
0.0
 20
0.0
 30
0.0
  3
SW_CENTERMARKSYMBOL_11
  1

  0
LINE
  5
247
  8
10
 62
     0
 10
0.0
 20
0.0
 30
0.0
 11
0.0
 21
4.9999999999999476
 31
0.0
  0
LINE
  5
248
  8
10
 62
     0
 10
0.0
 20
0.0
 30
0.0
 11
-5.0000000000000044
 21
0.0
 31
0.0
  0
LINE
  5
249
  8
10
 62
     0
 10
0.0
 20
0.0
 30
0.0
 11
0.0
 21
-5.0000000000000044
 31
0.0
  0
LINE
  5
24A
  8
10
 62
     0
 10
0.0
 20
0.0
 30
0.0
 11
5.0000000000000044
 21
0.0
 31
0.0
  0
LINE
  5
24B
  8
10
 62
     0
 10
0.0
 20
4.9999999999999476
 30
0.0
 11
0.0
 21
7.999999999999952
 31
0.0
  0
LINE
  5
24C
  8
10
 62
     0
 10
-5.0000000000000044
 20
0.0
 30
0.0
 11
-8.0000000000000071
 21
0.0
 31
0.0
  0
LINE
  5
24D
  8
10
 62
     0
 10
0.0
 20
-5.0000000000000044
 30
0.0
 11
0.0
 21
-8.0000000000000071
 31
0.0
  0
LINE
  5
24E
  8
10
 62
     0
 10
5.0000000000000044
 20
0.0
 30
0.0
 11
8.0000000000000071
 21
0.0
 31
0.0
  0
ENDBLK
  5
246
  8
0
  0
BLOCK
  8
0
  2
SW_CENTERMARKSYMBOL_12
 70
     0
 10
0.0
 20
0.0
 30
0.0
  3
SW_CENTERMARKSYMBOL_12
  1

  0
LINE
  5
253
  8
10
 62
     0
 10
0.0
 20
0.0
 30
0.0
 11
0.0
 21
5.0000000000000044
 31
0.0
  0
LINE
  5
254
  8
10
 62
     0
 10
0.0
 20
0.0
 30
0.0
 11
-5.0000000000000044
 21
0.0
 31
0.0
  0
LINE
  5
255
  8
10
 62
     0
 10
0.0
 20
0.0
 30
0.0
 11
0.0
 21
-5.0000000000000044
 31
0.0
  0
LINE
  5
256
  8
10
 62
     0
 10
0.0
 20
0.0
 30
0.0
 11
5.0000000000000044
 21
0.0
 31
0.0
  0
LINE
  5
257
  8
10
 62
     0
 10
0.0
 20
5.0000000000000044
 30
0.0
 11
0.0
 21
8.0000000000000071
 31
0.0
  0
LINE
  5
258
  8
10
 62
     0
 10
-5.0000000000000044
 20
0.0
 30
0.0
 11
-8.0000000000000071
 21
0.0
 31
0.0
  0
LINE
  5
259
  8
10
 62
     0
 10
0.0
 20
-5.0000000000000044
 30
0.0
 11
0.0
 21
-8.0000000000000071
 31
0.0
  0
LINE
  5
25A
  8
10
 62
     0
 10
5.0000000000000044
 20
0.0
 30
0.0
 11
7.9999999999998961
 21
0.0
 31
0.0
  0
ENDBLK
  5
252
  8
0
  0
BLOCK
  8
0
  2
SW_CENTERMARKSYMBOL_13
 70
     0
 10
0.0
 20
0.0
 30
0.0
  3
SW_CENTERMARKSYMBOL_13
  1

  0
LINE
  5
25F
  8
10
 62
     0
 10
0.0
 20
0.0
 30
0.0
 11
0.0
 21
5.0000000000000044
 31
0.0
  0
LINE
  5
260
  8
10
 62
     0
 10
0.0
 20
0.0
 30
0.0
 11
-5.0000000000000044
 21
0.0
 31
0.0
  0
LINE
  5
261
  8
10
 62
     0
 10
0.0
 20
0.0
 30
0.0
 11
0.0
 21
-5.0000000000000044
 31
0.0
  0
LINE
  5
262
  8
10
 62
     0
 10
0.0
 20
0.0
 30
0.0
 11
5.0000000000000044
 21
0.0
 31
0.0
  0
LINE
  5
263
  8
10
 62
     0
 10
0.0
 20
5.0000000000000044
 30
0.0
 11
0.0
 21
8.0000000000000071
 31
0.0
  0
LINE
  5
264
  8
10
 62
     0
 10
-5.0000000000000044
 20
0.0
 30
0.0
 11
-8.0000000000000071
 21
0.0
 31
0.0
  0
LINE
  5
265
  8
10
 62
     0
 10
0.0
 20
-5.0000000000000044
 30
0.0
 11
0.0
 21
-8.0000000000000071
 31
0.0
  0
LINE
  5
266
  8
10
 62
     0
 10
5.0000000000000044
 20
0.0
 30
0.0
 11
8.0000000000000071
 21
0.0
 31
0.0
  0
ENDBLK
  5
25E
  8
0
  0
ENDSEC
  0
SECTION
  2
ENTITIES
  0
ARC
  5
17E
  8
0
  6
CONTINUOUS
 62
     7
 10
599.59590116785421
 20
563.51954688446256
 30
0.0
 40
3.0
 50
0.0
 51
45.0
  0
LINE
  5
17F
  8
0
  6
CONTINUOUS
 62
     7
 10
602.59590116785409
 20
525.26218757158165
 30
0.0
 11
602.59590116785409
 21
563.51954688446256
 31
0.0
  0
ARC
  5
180
  8
0
  6
CONTINUOUS
 62
     7
 10
599.59590116785421
 20
525.26218757158165
 30
0.0
 40
3.0
 50
270.0
 51
0.0
  0
ARC
  5
181
  8
0
  6
CONTINUOUS
 62
     7
 10
529.45000313410401
 20
525.26218757158165
 30
0.0
 40
3.0
 50
206.5650511770809
 51
270.0
  0
ARC
  5
182
  8
0
  6
CONTINUOUS
 62
     7
 10
515.74179920160464
 20
539.26218757158165
 30
0.0
 40
3.0000000000000271
 50
26.5650511770809
 51
90.0
  0
ARC
  5
183
  8
0
  6
CONTINUOUS
 62
     7
 10
469.45000313410401
 20
539.26218757158165
 30
0.0
 40
3.0
 50
90.0
 51
153.4349488229191
  0
ARC
  5
184
  8
0
  6
CONTINUOUS
 62
     7
 10
455.74179920160481
 20
525.26218757158165
 30
0.0
 40
3.000000000000028
 50
270.0
 51
333.43494882292202
  0
ARC
  5
185
  8
0
  6
CONTINUOUS
 62
     7
 10
385.59590116785438
 20
525.26218757158165
 30
0.0
 40
3.0000000000000142
 50
180.0
 51
270.0
  0
LINE
  5
186
  8
0
  6
CONTINUOUS
 62
     7
 10
382.59590116785438
 20
563.51954688446256
 30
0.0
 11
382.59590116785438
 21
525.26218757158165
 31
0.0
  0
ARC
  5
187
  8
0
  6
CONTINUOUS
 62
     7
 10
385.59590116785438
 20
563.51954688446256
 30
0.0
 40
3.0000000000000142
 50
135.0
 51
180.0
  0
LINE
  5
188
  8
0
  6
CONTINUOUS
 62
     7
 10
383.47458082429478
 20
565.64086722802222
 30
0.0
 11
409.21722151141392
 21
591.38350791514154
 31
0.0
  0
ARC
  5
189
  8
0
  6
CONTINUOUS
 62
     7
 10
411.33854185497358
 20
589.26218757158165
 30
0.0
 40
3.000000000000024
 50
90.0
 51
135.0
  0
ARC
  5
18A
  8
0
  6
CONTINUOUS
 62
     7
 10
573.85326048073512
 20
589.26218757158165
 30
0.0
 40
3.000000000000024
 50
45.0
 51
90.0
  0
LINE
  5
18B
  8
0
  6
CONTINUOUS
 62
     7
 10
575.97458082429455
 20
591.38350791514154
 30
0.0
 11
601.71722151141375
 21
565.64086722802244
 31
0.0
  0
CIRCLE
  5
18C
  8
0
  6
CONTINUOUS
 62
     7
 10
427.59590116785432
 20
542.26218757158165
 30
0.0
 40
1.5
  0
CIRCLE
  5
18D
  8
0
  6
CONTINUOUS
 62
     7
 10
557.59590116785444
 20
542.26218757158165
 30
0.0
 40
1.5
  0
CIRCLE
  5
18E
  8
0
  6
CONTINUOUS
 62
     7
 10
557.59590116785444
 20
582.26218757158165
 30
0.0
 40
1.5
  0
CIRCLE
  5
18F
  8
0
  6
CONTINUOUS
 62
     7
 10
427.59590116785432
 20
582.26218757158165
 30
0.0
 40
1.5
  0
ARC
  5
190
  8
0
  6
CONTINUOUS
 62
     7
 10
416.09590116785409
 20
528.26218757158165
 30
0.0
 40
3.0
 50
270.0
 51
0.0
  0
LINE
  5
191
  8
0
  6
CONTINUOUS
 62
     7
 10
419.09590116785421
 20
528.26218757158165
 30
0.0
 11
419.09590116785421
 21
544.26218757158176
 31
0.0
  0
ARC
  5
192
  8
0
  6
CONTINUOUS
 62
     7
 10
416.09590116785409
 20
544.26218757158176
 30
0.0
 40
3.000000000000056
 50
0.0
 51
90.0
  0
LINE
  5
193
  8
0
  6
CONTINUOUS
 62
     7
 10
416.09590116785409
 20
547.26218757158188
 30
0.0
 11
402.59590116785409
 21
547.26218757158188
 31
0.0
  0
ARC
  5
194
  8
0
  6
CONTINUOUS
 62
     7
 10
402.59590116785409
 20
544.26218757158176
 30
0.0
 40
3.000000000000056
 50
90.0
 51
180.0
  0
LINE
  5
195
  8
0
  6
CONTINUOUS
 62
     7
 10
399.59590116785421
 20
544.26218757158176
 30
0.0
 11
399.59590116785421
 21
528.26218757158165
 31
0.0
  0
ARC
  5
196
  8
0
  6
CONTINUOUS
 62
     7
 10
402.59590116785409
 20
528.26218757158165
 30
0.0
 40
3.0
 50
180.0
 51
270.0
  0
LINE
  5
197
  8
0
  6
CONTINUOUS
 62
     7
 10
402.59590116785409
 20
525.26218757158165
 30
0.0
 11
416.09590116785409
 21
525.26218757158165
 31
0.0
  0
ARC
  5
198
  8
0
  6
CONTINUOUS
 62
     7
 10
569.09590116785455
 20
528.26218757158176
 30
0.0
 40
3.000000000000056
 50
180.0
 51
270.0
  0
LINE
  5
199
  8
0
  6
CONTINUOUS
 62
     7
 10
569.09590116785455
 20
525.26218757158176
 30
0.0
 11
582.59590116785455
 21
525.26218757158176
 31
0.0
  0
ARC
  5
19A
  8
0
  6
CONTINUOUS
 62
     7
 10
582.59590116785455
 20
528.26218757158176
 30
0.0
 40
3.0
 50
270.0
 51
0.0
  0
LINE
  5
19B
  8
0
  6
CONTINUOUS
 62
     7
 10
585.59590116785455
 20
528.26218757158176
 30
0.0
 11
585.59590116785455
 21
544.26218757158176
 31
0.0
  0
ARC
  5
19C
  8
0
  6
CONTINUOUS
 62
     7
 10
582.59590116785455
 20
544.26218757158176
 30
0.0
 40
3.000000000000056
 50
0.0
 51
90.0
  0
LINE
  5
19D
  8
0
  6
CONTINUOUS
 62
     7
 10
582.59590116785455
 20
547.26218757158188
 30
0.0
 11
569.09590116785455
 21
547.26218757158188
 31
0.0
  0
ARC
  5
19E
  8
0
  6
CONTINUOUS
 62
     7
 10
569.09590116785455
 20
544.26218757158176
 30
0.0
 40
3.000000000000056
 50
90.0
 51
180.0
  0
LINE
  5
19F
  8
0
  6
CONTINUOUS
 62
     7
 10
566.09590116785455
 20
544.26218757158176
 30
0.0
 11
566.09590116785455
 21
528.26218757158176
 31
0.0
  0
ARC
  5
1A0
  8
0
  6
CONTINUOUS
 62
     7
 10
533.59590116785455
 20
528.26218757158165
 30
0.0
 40
3.0
 50
180.0
 51
270.0
  0
LINE
  5
1A1
  8
0
  6
CONTINUOUS
 62
     7
 10
533.59590116785455
 20
525.26218757158165
 30
0.0
 11
546.09590116785455
 21
525.26218757158176
 31
0.0
  0
ARC
  5
1A2
  8
0
  6
CONTINUOUS
 62
     7
 10
546.09590116785455
 20
528.26218757158176
 30
0.0
 40
3.0
 50
270.0
 51
0.0
  0
LINE
  5
1A3
  8
0
  6
CONTINUOUS
 62
     7
 10
549.09590116785455
 20
528.26218757158176
 30
0.0
 11
549.09590116785455
 21
544.26218757158176
 31
0.0
  0
ARC
  5
1A4
  8
0
  6
CONTINUOUS
 62
     7
 10
546.09590116785455
 20
544.26218757158176
 30
0.0
 40
3.000000000000056
 50
0.0
 51
90.0
  0
LINE
  5
1A5
  8
0
  6
CONTINUOUS
 62
     7
 10
546.09590116785455
 20
547.26218757158188
 30
0.0
 11
533.59590116785455
 21
547.26218757158188
 31
0.0
  0
ARC
  5
1A6
  8
0
  6
CONTINUOUS
 62
     7
 10
533.59590116785455
 20
544.26218757158176
 30
0.0
 40
3.000000000000056
 50
90.0
 51
180.0
  0
LINE
  5
1A7
  8
0
  6
CONTINUOUS
 62
     7
 10
530.59590116785455
 20
544.26218757158176
 30
0.0
 11
530.59590116785455
 21
528.26218757158165
 31
0.0
  0
ARC
  5
1A8
  8
0
  6
CONTINUOUS
 62
     7
 10
451.59590116785409
 20
528.26218757158165
 30
0.0
 40
3.0
 50
270.0
 51
0.0
  0
LINE
  5
1A9
  8
0
  6
CONTINUOUS
 62
     7
 10
454.59590116785409
 20
528.26218757158165
 30
0.0
 11
454.59590116785409
 21
544.26218757158176
 31
0.0
  0
ARC
  5
1AA
  8
0
  6
CONTINUOUS
 62
     7
 10
451.59590116785409
 20
544.26218757158176
 30
0.0
 40
3.000000000000056
 50
0.0
 51
90.0
  0
LINE
  5
1AB
  8
0
  6
CONTINUOUS
 62
     7
 10
451.59590116785409
 20
547.26218757158188
 30
0.0
 11
439.09590116785409
 21
547.26218757158188
 31
0.0
  0
ARC
  5
1AC
  8
0
  6
CONTINUOUS
 62
     7
 10
439.09590116785409
 20
544.26218757158176
 30
0.0
 40
3.000000000000056
 50
90.0
 51
180.0
  0
LINE
  5
1AD
  8
0
  6
CONTINUOUS
 62
     7
 10
436.09590116785409
 20
544.26218757158176
 30
0.0
 11
436.09590116785409
 21
528.26218757158165
 31
0.0
  0
ARC
  5
1AE
  8
0
  6
CONTINUOUS
 62
     7
 10
439.09590116785409
 20
528.26218757158165
 30
0.0
 40
3.0
 50
180.0
 51
270.0
  0
LINE
  5
1AF
  8
0
  6
CONTINUOUS
 62
     7
 10
439.09590116785409
 20
525.26218757158165
 30
0.0
 11
451.59590116785409
 21
525.26218757158165
 31
0.0
  0
CIRCLE
  5
1B0
  8
0
  6
CONTINUOUS
 62
     7
 10
390.09590116785438
 20
529.76218757158165
 30
0.0
 40
1.4999999999999709
  0
CIRCLE
  5
1B1
  8
0
  6
CONTINUOUS
 62
     7
 10
390.09590116785438
 20
559.76218757158165
 30
0.0
 40
1.5
  0
CIRCLE
  5
1B2
  8
0
  6
CONTINUOUS
 62
     7
 10
460.09590116785432
 20
542.26218757158165
 30
0.0
 40
1.5
  0
CIRCLE
  5
1B3
  8
0
  6
CONTINUOUS
 62
     7
 10
460.09590116785432
 20
584.76218757158165
 30
0.0
 40
1.5
  0
CIRCLE
  5
1B4
  8
0
  6
CONTINUOUS
 62
     7
 10
525.09590116785432
 20
584.76218757158165
 30
0.0
 40
1.5
  0
CIRCLE
  5
1B5
  8
0
  6
CONTINUOUS
 62
     7
 10
576.09590116785421
 20
579.76218757158165
 30
0.0
 40
1.5
  0
CIRCLE
  5
1B6
  8
0
  6
CONTINUOUS
 62
     7
 10
409.09590116785438
 20
579.76218757158165
 30
0.0
 40
1.5
  0
CIRCLE
  5
1B7
  8
0
  6
CONTINUOUS
 62
     7
 10
595.09590116785409
 20
529.76218757158165
 30
0.0
 40
1.4999999999999709
  0
CIRCLE
  5
1B8
  8
0
  6
CONTINUOUS
 62
     7
 10
595.09590116785409
 20
559.76218757158165
 30
0.0
 40
1.5
  0
CIRCLE
  5
1B9
  8
0
  6
CONTINUOUS
 62
     7
 10
525.09590116785432
 20
542.26218757158165
 30
0.0
 40
1.5
  0
LINE
  5
1BA
  8
0
  6
CONTINUOUS
 62
     7
 10
573.85326048073512
 20
592.26218757158165
 30
0.0
 11
411.33854185497358
 21
592.26218757158165
 31
0.0
  0
LINE
  5
1BB
  8
0
  6
CONTINUOUS
 62
     7
 10
529.45000313410401
 20
522.26218757158165
 30
0.0
 11
599.59590116785421
 21
522.26218757158165
 31
0.0
  0
LINE
  5
1BC
  8
0
  6
CONTINUOUS
 62
     7
 10
518.42508077460434
 20
540.60382835808173
 30
0.0
 11
526.7667215611043
 21
523.92054678508202
 31
0.0
  0
LINE
  5
1BD
  8
0
  6
CONTINUOUS
 62
     7
 10
469.45000313410401
 20
542.26218757158165
 30
0.0
 11
515.74179920160464
 21
542.26218757158165
 31
0.0
  0
LINE
  5
1BE
  8
0
  6
CONTINUOUS
 62
     7
 10
458.4250807746044
 20
523.92054678508202
 30
0.0
 11
466.7667215611043
 21
540.60382835808173
 31
0.0
  0
LINE
  5
1BF
  8
0
  6
CONTINUOUS
 62
     7
 10
385.59590116785438
 20
522.26218757158165
 30
0.0
 11
455.74179920160481
 21
522.26218757158165
 31
0.0
  0
ENDSEC
  0
EOF
