0
SECTION
2
HEADER
9
$INSUNITS
70
4
9
$ACADVER
1
AC1014
9
$HANDSEED
5
FFFF
0
ENDSEC
0
SECTION
2
TABLES
0
TABLE
2
VPORT
5
8
100
AcDbSymbolTable
0
ENDTAB
0
TABLE
2
LTYPE
5
5
100
AcDbSymbolTable
0
LTYPE
5
14
100
AcDbSymbolTableRecord
100
AcDbLinetypeTableRecord
2
BYBLOCK
70
0
0
LTYPE
5
15
100
AcDbSymbolTableRecord
100
AcDbLinetypeTableRecord
2
BYLAYER
70
0
0
ENDTAB
0
TABLE
2
LAYER
5
2
100
AcDbSymbolTable
70
2
0
LAYER
5
50
100
AcDbSymbolTableRecord
100
AcDbLayerTableRecord
2
0
70
0
6
CONTINUOUS
0
ENDTAB
0
TABLE
2
STYLE
5
3
100
AcDbSymbolTable
70
1
0
STYLE
5
11
100
AcDbSymbolTableRecord
100
AcDbTextStyleTableRecord
2
STANDARD
70
0
0
ENDTAB
0
TABLE
2
VIEW
5
6
100
AcDbSymbolTable
70
0
0
ENDTAB
0
TABLE
2
UCS
5
7
100
AcDbSymbolTable
70
0
0
ENDTAB
0
TABLE
2
APPID
5
9
100
AcDbSymbolTable
70
2
0
APPID
5
12
100
AcDbSymbolTableRecord
100
AcDbRegAppTableRecord
2
ACAD
70
0
0
ENDTAB
0
TABLE
2
DIMSTYLE
5
A
100
AcDbSymbolTable
70
1
0
ENDTAB
0
TABLE
2
BLOCK_RECORD
5
1
100
AcDbSymbolTable
70
1
0
BLOCK_RECORD
5
1F
100
AcDbSymbolTableRecord
100
AcDbBlockTableRecord
2
*MODEL_SPACE
0
BLOCK_RECORD
5
1B
100
AcDbSymbolTableRecord
100
AcDbBlockTableRecord
2
*PAPER_SPACE
0
ENDTAB
0
ENDSEC
0
SECTION
2
BLOCKS
0
BLOCK
5
20
100
AcDbEntity
100
AcDbBlockBegin
2
*MODEL_SPACE
0
ENDBLK
5
21
100
AcDbEntity
100
AcDbBlockEnd
0
BLOCK
5
1C
100
AcDbEntity
100
AcDbBlockBegin
2
*PAPER_SPACE
0
ENDBLK
5
1D
100
AcDbEntity
100
AcDbBlockEnd
0
ENDSEC
0
SECTION
2
ENTITIES
0
LWPOLYLINE
5
100
100
AcDbEntity
8
0
100
AcDbPolyline
90
16
70
1
43
0.0
10
-29.999999999987132
20
-52.5
42
0.41421356237291096
10
-19.999999999987143
20
-42.500000000006267
10
-19.999999999982538
20
-35.149999999946772
42
-0.41421356237308699
10
-14.999999999979545
20
-30.149999999949905
10
15.000000000006759
20
-30.149999999967871
42
-0.41421356237309764
10
20.000000000003762
20
-35.149999999970916
10
19.999999999999293
20
-42.499999999993904
42
0.41421356237327323
10
29.999999999999289
20
-52.499999999999993
10
65.000000000000014
20
-52.499999999999993
42
0.41421356237309453
10
75.000000000000014
20
-42.499999999999993
10
75
20
42.500000000000007
42
0.41421356237309476
10
65.000000000000014
20
52.500000000000007
10
-64.999999999999986
20
52.5
42
0.41421356237309503
10
-74.999999999999986
20
42.5
10
-74.999999999999986
20
-42.5
42
0.41421356237309503
10
-64.999999999999986
20
-52.5
0
CIRCLE
5
101
100
AcDbEntity
8
0
100
AcDbCircle
10
-3.0000000000000133
20
15.5
30
0
40
1.5000000000000022
210
0
220
-0
230
1
0
CIRCLE
5
102
100
AcDbEntity
8
0
100
AcDbCircle
10
-3.0000000000000111
20
25.5
30
0
40
1.5000000000000018
210
0
220
-0
230
1
0
CIRCLE
5
103
100
AcDbEntity
8
0
100
AcDbCircle
10
-19.000000000000014
20
25.5
30
0
40
1.4999999999999991
210
0
220
-0
230
1
0
CIRCLE
5
104
100
AcDbEntity
8
0
100
AcDbCircle
10
-11.000000000000012
20
25.5
30
0
40
1.5000000000000013
210
0
220
-0
230
1
0
LWPOLYLINE
5
105
100
AcDbEntity
8
0
100
AcDbPolyline
90
4
70
1
43
0.0
10
46.850002167699003
20
-30.149999999988715
42
0.99999937180534382
10
46.850001162201984
20
-24.850000000010645
10
42.850001203272228
20
-24.850000000013068
42
0.99999981780323177
10
42.849997830336449
20
-30.149999999986321
0
CIRCLE
5
106
100
AcDbEntity
8
0
100
AcDbCircle
10
65.149999999999309
20
-27.499999999999886
30
0
40
2.6499999999999968
210
0
220
-0
230
1
0
LWPOLYLINE
5
107
100
AcDbEntity
8
0
100
AcDbPolyline
90
4
70
1
43
0.0
10
-42.849999196746765
20
-30.14999999993347
42
0.99999984858632163
10
-42.85000000076063
20
-24.850000000066412
10
-46.849999999999994
20
-24.850000000068853
42
0.99999985981817252
10
-46.850000743960138
20
-30.14999999993104
0
CIRCLE
5
108
100
AcDbEntity
8
0
100
AcDbCircle
10
-11.000000000000012
20
35.5
30
0
40
1.4999999999999991
210
0
220
-0
230
1
0
CIRCLE
5
109
100
AcDbEntity
8
0
100
AcDbCircle
10
-27.000000000000014
20
25.5
30
0
40
1.4999999999999991
210
0
220
-0
230
1
0
CIRCLE
5
110
100
AcDbEntity
8
0
100
AcDbCircle
10
-27.000000000000014
20
35.5
30
0
40
1.4999999999999991
210
0
220
-0
230
1
0
CIRCLE
5
111
100
AcDbEntity
8
0
100
AcDbCircle
10
-19.000000000000014
20
35.5
30
0
40
1.5000000000000036
210
0
220
-0
230
1
0
CIRCLE
5
112
100
AcDbEntity
8
0
100
AcDbCircle
10
-65.149999999999991
20
-27.5
30
0
40
2.6499999999999968
210
0
220
-0
230
1
0
CIRCLE
5
113
100
AcDbEntity
8
0
100
AcDbCircle
10
-3.0000000000000089
20
35.5
30
0
40
1.4999999999999991
210
0
220
-0
230
1
0
CIRCLE
5
114
100
AcDbEntity
8
0
100
AcDbCircle
10
-11.000000000000012
20
15.5
30
0
40
1.4999999999999991
210
0
220
-0
230
1
0
CIRCLE
5
115
100
AcDbEntity
8
0
100
AcDbCircle
10
-19.000000000000014
20
15.5
30
0
40
1.4999999999999991
210
0
220
-0
230
1
0
CIRCLE
5
116
100
AcDbEntity
8
0
100
AcDbCircle
10
-27.000000000000014
20
15.5
30
0
40
1.4999999999999991
210
0
220
-0
230
1
0
CIRCLE
5
117
100
AcDbEntity
8
0
100
AcDbCircle
10
-3.000000000000016
20
5.5000000000000027
30
0
40
1.4999999999999991
210
0
220
-0
230
1
0
CIRCLE
5
118
100
AcDbEntity
8
0
100
AcDbCircle
10
-11.000000000000012
20
5.5000000000000036
30
0
40
1.4999999999999991
210
0
220
-0
230
1
0
CIRCLE
5
119
100
AcDbEntity
8
0
100
AcDbCircle
10
-19.000000000000014
20
5.5000000000000053
30
0
40
1.4999999999999991
210
0
220
-0
230
1
0
CIRCLE
5
120
100
AcDbEntity
8
0
100
AcDbCircle
10
-27.000000000000011
20
5.5000000000000062
30
0
40
1.4999999999999991
210
0
220
-0
230
1
0
CIRCLE
5
121
100
AcDbEntity
8
0
100
AcDbCircle
10
-46.000000000000014
20
35.5
30
0
40
1.5000000000000036
210
0
220
-0
230
1
0
CIRCLE
5
122
100
AcDbEntity
8
0
100
AcDbCircle
10
-38.000000000000014
20
35.5
30
0
40
1.4999999999999991
210
0
220
-0
230
1
0
CIRCLE
5
123
100
AcDbEntity
8
0
100
AcDbCircle
10
-38.000000000000014
20
15.5
30
0
40
1.4999999999999991
210
0
220
-0
230
1
0
CIRCLE
5
124
100
AcDbEntity
8
0
100
AcDbCircle
10
-38.000000000000014
20
5.5000000000000071
30
0
40
1.4999999999999991
210
0
220
-0
230
1
0
CIRCLE
5
125
100
AcDbEntity
8
0
100
AcDbCircle
10
-38.000000000000014
20
25.5
30
0
40
1.4999999999999991
210
0
220
-0
230
1
0
CIRCLE
5
126
100
AcDbEntity
8
0
100
AcDbCircle
10
-46.000000000000007
20
25.5
30
0
40
1.4999999999999947
210
0
220
-0
230
1
0
CIRCLE
5
127
100
AcDbEntity
8
0
100
AcDbCircle
10
-46.000000000000007
20
15.5
30
0
40
1.4999999999999947
210
0
220
-0
230
1
0
CIRCLE
5
128
100
AcDbEntity
8
0
100
AcDbCircle
10
-46
20
5.500000000000008
30
0
40
1.5000000000000036
210
0
220
-0
230
1
0
CIRCLE
5
129
100
AcDbEntity
8
0
100
AcDbCircle
10
-54.000000000000021
20
35.5
30
0
40
1.5000000000000036
210
0
220
-0
230
1
0
CIRCLE
5
130
100
AcDbEntity
8
0
100
AcDbCircle
10
-54.000000000000021
20
25.5
30
0
40
1.5000000000000036
210
0
220
-0
230
1
0
CIRCLE
5
131
100
AcDbEntity
8
0
100
AcDbCircle
10
-54.000000000000014
20
15.5
30
0
40
1.5000000000000036
210
0
220
-0
230
1
0
CIRCLE
5
132
100
AcDbEntity
8
0
100
AcDbCircle
10
-54.000000000000014
20
5.5000000000000089
30
0
40
1.5000000000000036
210
0
220
-0
230
1
0
CIRCLE
5
133
100
AcDbEntity
8
0
100
AcDbCircle
10
-62.000000000000021
20
35.5
30
0
40
1.5000000000000036
210
0
220
-0
230
1
0
CIRCLE
5
134
100
AcDbEntity
8
0
100
AcDbCircle
10
-62.000000000000021
20
25.5
30
0
40
1.4999999999999947
210
0
220
-0
230
1
0
CIRCLE
5
135
100
AcDbEntity
8
0
100
AcDbCircle
10
-62.000000000000021
20
15.5
30
0
40
1.5000000000000036
210
0
220
-0
230
1
0
CIRCLE
5
136
100
AcDbEntity
8
0
100
AcDbCircle
10
-62.000000000000014
20
5.5000000000000107
30
0
40
1.5000000000000036
210
0
220
-0
230
1
0
CIRCLE
5
137
100
AcDbEntity
8
0
100
AcDbCircle
10
-32.000000000000703
20
47.5
30
0
40
1.5249999999999986
210
0
220
-0
230
1
0
CIRCLE
5
138
100
AcDbEntity
8
0
100
AcDbCircle
10
23.999999999999304
20
47.5
30
0
40
1.5249999999999986
210
0
220
-0
230
1
0
CIRCLE
5
139
100
AcDbEntity
8
0
100
AcDbCircle
10
-32.000000000000703
20
47.5
30
0
40
1.5250000000000006
210
0
220
0
230
1
0
CIRCLE
5
140
100
AcDbEntity
8
0
100
AcDbCircle
10
23.999999999999304
20
47.5
30
0
40
1.5249999999999955
210
0
220
0
230
1
0
CIRCLE
5
141
100
AcDbEntity
8
0
100
AcDbCircle
10
-3.0000000000000089
20
35.5
30
0
40
1.4999999999999991
210
0
220
0
230
1
0
CIRCLE
5
142
100
AcDbEntity
8
0
100
AcDbCircle
10
-11.000000000000012
20
35.5
30
0
40
1.4999999999999991
210
0
220
0
230
1
0
CIRCLE
5
143
100
AcDbEntity
8
0
100
AcDbCircle
10
-19.000000000000014
20
35.5
30
0
40
1.5000000000000036
210
0
220
0
230
1
0
CIRCLE
5
144
100
AcDbEntity
8
0
100
AcDbCircle
10
-27.000000000000014
20
35.5
30
0
40
1.4999999999999991
210
0
220
0
230
1
0
CIRCLE
5
145
100
AcDbEntity
8
0
100
AcDbCircle
10
-38.000000000000014
20
35.5
30
0
40
1.4999999999999991
210
0
220
0
230
1
0
CIRCLE
5
146
100
AcDbEntity
8
0
100
AcDbCircle
10
-46.000000000000014
20
35.5
30
0
40
1.5000000000000036
210
0
220
0
230
1
0
CIRCLE
5
147
100
AcDbEntity
8
0
100
AcDbCircle
10
-54.000000000000021
20
35.5
30
0
40
1.5000000000000036
210
0
220
0
230
1
0
CIRCLE
5
148
100
AcDbEntity
8
0
100
AcDbCircle
10
-62.000000000000021
20
35.5
30
0
40
1.5000000000000036
210
0
220
0
230
1
0
CIRCLE
5
149
100
AcDbEntity
8
0
100
AcDbCircle
10
-62.000000000000021
20
25.5
30
0
40
1.499999642372414
210
0
220
0
230
1
0
CIRCLE
5
150
100
AcDbEntity
8
0
100
AcDbCircle
10
-54.000000000000021
20
25.5
30
0
40
1.5000000000000036
210
0
220
0
230
1
0
CIRCLE
5
151
100
AcDbEntity
8
0
100
AcDbCircle
10
-46.000000000000007
20
25.5
30
0
40
1.4999999999999947
210
0
220
0
230
1
0
CIRCLE
5
152
100
AcDbEntity
8
0
100
AcDbCircle
10
-38.000000000000014
20
25.5
30
0
40
1.4999999999999991
210
0
220
0
230
1
0
CIRCLE
5
153
100
AcDbEntity
8
0
100
AcDbCircle
10
-27.000000000000014
20
25.5
30
0
40
1.4999999999999991
210
0
220
0
230
1
0
CIRCLE
5
154
100
AcDbEntity
8
0
100
AcDbCircle
10
-19.000000000000014
20
25.5
30
0
40
1.4999999999999991
210
0
220
0
230
1
0
CIRCLE
5
155
100
AcDbEntity
8
0
100
AcDbCircle
10
-11.000000000000012
20
25.5
30
0
40
1.5000000000000022
210
0
220
0
230
1
0
CIRCLE
5
156
100
AcDbEntity
8
0
100
AcDbCircle
10
-3.0000000000000111
20
25.5
30
0
40
1.5000000000000036
210
0
220
0
230
1
0
CIRCLE
5
157
100
AcDbEntity
8
0
100
AcDbCircle
10
-3.0000000000000133
20
15.5
30
0
40
1.4999997913837442
210
0
220
0
230
1
0
CIRCLE
5
158
100
AcDbEntity
8
0
100
AcDbCircle
10
-11.000000000000012
20
15.5
30
0
40
1.4999999999999991
210
0
220
0
230
1
0
CIRCLE
5
159
100
AcDbEntity
8
0
100
AcDbCircle
10
-19.000000000000014
20
15.5
30
0
40
1.4999999999999991
210
0
220
0
230
1
0
CIRCLE
5
160
100
AcDbEntity
8
0
100
AcDbCircle
10
-27.000000000000014
20
15.5
30
0
40
1.4999999999999991
210
0
220
0
230
1
0
CIRCLE
5
161
100
AcDbEntity
8
0
100
AcDbCircle
10
-38.000000000000014
20
15.5
30
0
40
1.4999999999999991
210
0
220
0
230
1
0
CIRCLE
5
162
100
AcDbEntity
8
0
100
AcDbCircle
10
-46.000000000000007
20
15.5
30
0
40
1.4999999999999933
210
0
220
0
230
1
0
CIRCLE
5
163
100
AcDbEntity
8
0
100
AcDbCircle
10
-54.000000000000014
20
15.5
30
0
40
1.5000000000000038
210
0
220
0
230
1
0
CIRCLE
5
164
100
AcDbEntity
8
0
100
AcDbCircle
10
-62.000000000000021
20
15.5
30
0
40
1.4999997913840282
210
0
220
0
230
1
0
CIRCLE
5
165
100
AcDbEntity
8
0
100
AcDbCircle
10
-62.000000000000014
20
5.5000000000000107
30
0
40
1.4999999403956501
210
0
220
0
230
1
0
CIRCLE
5
166
100
AcDbEntity
8
0
100
AcDbCircle
10
-54.000000000000014
20
5.5000000000000089
30
0
40
1.5000000000000036
210
0
220
0
230
1
0
CIRCLE
5
167
100
AcDbEntity
8
0
100
AcDbCircle
10
-46
20
5.500000000000008
30
0
40
1.5000000000000031
210
0
220
0
230
1
0
CIRCLE
5
168
100
AcDbEntity
8
0
100
AcDbCircle
10
-38.000000000000014
20
5.5000000000000071
30
0
40
1.4999999999999991
210
0
220
0
230
1
0
CIRCLE
5
169
100
AcDbEntity
8
0
100
AcDbCircle
10
-27.000000000000011
20
5.5000000000000062
30
0
40
1.4999999999999991
210
0
220
0
230
1
0
CIRCLE
5
170
100
AcDbEntity
8
0
100
AcDbCircle
10
-19.000000000000014
20
5.5000000000000053
30
0
40
1.4999999999999991
210
0
220
0
230
1
0
CIRCLE
5
171
100
AcDbEntity
8
0
100
AcDbCircle
10
-11.000000000000012
20
5.5000000000000036
30
0
40
1.4999999999999991
210
0
220
0
230
1
0
CIRCLE
5
172
100
AcDbEntity
8
0
100
AcDbCircle
10
-3.000000000000016
20
5.5000000000000027
30
0
40
1.4999999999999991
210
0
220
0
230
1
0
CIRCLE
5
173
100
AcDbEntity
8
0
100
AcDbCircle
10
65.149999999999309
20
-27.499999999999886
30
0
40
2.6499999999999932
210
0
220
0
230
1
0
CIRCLE
5
174
100
AcDbEntity
8
0
100
AcDbCircle
10
-65.149999999999991
20
-27.5
30
0
40
2.6499999999999968
210
0
220
0
230
1
0
LWPOLYLINE
5
175
100
AcDbEntity
8
0
100
AcDbPolyline
90
4
70
1
43
0.0
10
-46.849999999999994
20
-24.850000000068853
10
-42.85000000076063
20
-24.850000000066412
42
-0.99999984858632163
10
-42.849999196746765
20
-30.14999999993347
10
-46.850000742963729
20
-30.14999999993103
42
-0.99999985981817252
0
ARC
5
176
100
AcDbEntity
8
0
100
AcDbCircle
10
42.849999999999973
20
-27.5
30
0
40
2.6499999999872048
210
0
220
-0
230
1
100
AcDbArc
50
89.999973983991765
51
269.99995308959893
0
ARC
5
177
100
AcDbEntity
8
0
100
AcDbCircle
10
46.84999999999998
20
-27.499999999999996
30
0
40
2.6499999999896078
210
-0
220
0
230
1
100
AcDbArc
50
-89.999953132073514
51
89.999974871973677
0
LINE
5
178
100
AcDbEntity
8
0
100
AcDbLine
10
42.850001203272228
20
-24.850000000013068
30
0
11
46.850001162201984
21
-24.850000000010645
31
0
0
LINE
5
179
100
AcDbEntity
8
0
100
AcDbLine
10
42.849997830336449
20
-30.149999999986321
30
0
11
46.850002167699003
21
-30.149999999988715
31
0
0
LWPOLYLINE
5
180
100
AcDbEntity
8
0
100
AcDbPolyline
90
16
70
1
43
0.0
10
-64.999999999999986
20
-52.5
10
-29.999999999987132
20
-52.5
42
0.41421356237291096
10
-19.999999999987143
20
-42.500000000006267
10
-19.999999999982538
20
-35.149999999946772
42
-0.41421356237308699
10
-14.999999999979545
20
-30.149999999949905
10
15.000000000006759
20
-30.149999999967871
42
-0.41421356237309764
10
20.000000000003762
20
-35.149999999970916
10
19.999999999999293
20
-42.499999999993904
42
0.41421356237327323
10
29.999999999999289
20
-52.499999999999993
10
65.000000000000014
20
-52.499999999999993
42
0.41421356237309453
10
75.000000000000014
20
-42.499999999999993
10
75
20
42.500000000000007
42
0.41421356237309476
10
65.000000000000014
20
52.500000000000007
10
-64.999999999999986
20
52.5
42
0.41421356237309503
10
-74.999999999999986
20
42.5
10
-74.999999999999986
20
-42.5
42
0.41421356237309503
0
ENDSEC
0
SECTION
2
OBJECTS
0
DICTIONARY
5
C
100
AcDbDictionary
3
ACAD_GROUP
350
D
3
ACAD_MLINESTYLE
350
17
0
DICTIONARY
5
D
100
AcDbDictionary
0
DICTIONARY
5
1A
330
C
100
AcDbDictionary
0
DICTIONARY
5
17
100
AcDbDictionary
0
ENDSEC
0
EOF
