  0
SECTION
  2
HEADER
  9
$ACADVER
  1
AC1009
  9
$INSBASE
 10
0.0
 20
0.0
 30
0.0
  9
$EXTMIN
 10
0.0
 20
0.0
 30
0.0
  9
$EXTMAX
 10
1189.0
 20
841.0000000000004547
 30
0.0
  9
$LIMMIN
 10
0.0
 20
0.0
  9
$LIMMAX
 10
1189.0
 20
841.0
  9
$ORTHOMODE
 70
     0
  9
$REGENMODE
 70
     1
  9
$FILLMODE
 70
     1
  9
$QTEXTMODE
 70
     0
  9
$MIRRTEXT
 70
     1
  9
$DRAGMODE
 70
     2
  9
$LTSCALE
 40
1.0
  9
$OSMODE
 70
    37
  9
$ATTMODE
 70
     1
  9
$TEXTSIZE
 40
3.5
  9
$TRACEWID
 40
1.0
  9
$TEXTSTYLE
  7
STANDARD
  9
$CLAYER
  8
0
  9
$CELTYPE
  6
BYLAYER
  9
$CECOLOR
 62
   256
  9
$DIMSCALE
 40
1.0
  9
$DIMASZ
 40
4.0800000000000001
  9
$DIMEXO
 40
0.0
  9
$DIMDLI
 40
3.75
  9
$DIMRND
 40
0.0
  9
$DIMDLE
 40
0.0
  9
$DIMEXE
 40
2.0
  9
$DIMTP
 40
0.0
  9
$DIMTM
 40
0.0
  9
$DIMTXT
 40
3.5
  9
$DIMCEN
 40
2.5
  9
$DIMTSZ
 40
0.0
  9
$DIMTOL
 70
     0
  9
$DIMLIM
 70
     0
  9
$DIMTIH
 70
     1
  9
$DIMTOH
 70
     1
  9
$DIMSE1
 70
     0
  9
$DIMSE2
 70
     0
  9
$DIMTAD
 70
     1
  9
$DIMZIN
 70
     0
  9
$DIMBLK
  1

  9
$DIMASO
 70
     1
  9
$DIMSHO
 70
     1
  9
$DIMPOST
  1

  9
$DIMAPOST
  1

  9
$DIMALT
 70
     0
  9
$DIMALTD
 70
     3
  9
$DIMALTF
 40
0.0393700787401575
  9
$DIMLFAC
 40
0.5
  9
$DIMTOFL
 70
     1
  9
$DIMTVP
 40
0.0
  9
$DIMTIX
 70
     0
  9
$DIMSOXD
 70
     0
  9
$DIMSAH
 70
     0
  9
$DIMBLK1
  1

  9
$DIMBLK2
  1

  9
$DIMSTYLE
  2
ISO-25
  9
$DIMCLRD
 70
     0
  9
$DIMCLRE
 70
     0
  9
$DIMCLRT
 70
     0
  9
$DIMTFAC
 40
1.0
  9
$DIMGAP
 40
1.524
  9
$LUNITS
 70
     2
  9
$LUPREC
 70
     2
  9
$SKETCHINC
 40
1.0
  9
$FILLETRAD
 40
10.0
  9
$AUNITS
 70
     0
  9
$AUPREC
 70
     2
  9
$MENU
  1
.
  9
$ELEVATION
 40
0.0
  9
$PELEVATION
 40
0.0
  9
$THICKNESS
 40
0.0
  9
$LIMCHECK
 70
     0
  9
$BLIPMODE
 70
     0
  9
$CHAMFERA
 40
0.0
  9
$CHAMFERB
 40
0.0
  9
$SKPOLY
 70
     0
  9
$TDCREATE
 40
2458495.9071180559694767
  9
$TDUPDATE
 40
2458495.9077546298503876
  9
$TDINDWG
 40
0.0005787153
  9
$TDUSRTIMER
 40
0.0005787153
  9
$USRTIMER
 70
     1
  9
$ANGBASE
 50
0.0
  9
$ANGDIR
 70
     0
  9
$PDMODE
 70
     0
  9
$PDSIZE
 40
-1.0
  9
$PLINEWID
 40
0.0
  9
$COORDS
 70
     1
  9
$SPLFRAME
 70
     0
  9
$SPLINETYPE
 70
     6
  9
$SPLINESEGS
 70
     8
  9
$ATTDIA
 70
     1
  9
$ATTREQ
 70
     1
  9
$HANDLING
 70
     1
  9
$HANDSEED
  5
2C7
  9
$SURFTAB1
 70
     6
  9
$SURFTAB2
 70
     6
  9
$SURFTYPE
 70
     6
  9
$SURFU
 70
     6
  9
$SURFV
 70
     6
  9
$UCSNAME
  2

  9
$UCSORG
 10
0.0
 20
0.0
 30
0.0
  9
$UCSXDIR
 10
1.0
 20
0.0
 30
0.0
  9
$UCSYDIR
 10
0.0
 20
1.0
 30
0.0
  9
$PUCSNAME
  2

  9
$PUCSORG
 10
0.0
 20
0.0
 30
0.0
  9
$PUCSXDIR
 10
1.0
 20
0.0
 30
0.0
  9
$PUCSYDIR
 10
0.0
 20
1.0
 30
0.0
  9
$USERI1
 70
     0
  9
$USERI2
 70
     0
  9
$USERI3
 70
     0
  9
$USERI4
 70
     0
  9
$USERI5
 70
     0
  9
$USERR1
 40
0.0
  9
$USERR2
 40
0.0
  9
$USERR3
 40
0.0
  9
$USERR4
 40
0.0
  9
$USERR5
 40
0.0
  9
$WORLDVIEW
 70
     1
  9
$SHADEDGE
 70
     3
  9
$SHADEDIF
 70
    70
  9
$TILEMODE
 70
     1
  9
$MAXACTVP
 70
    64
  9
$PLIMCHECK
 70
     0
  9
$PEXTMIN
 10
1.0000000000000000E+20
 20
1.0000000000000000E+20
 30
1.0000000000000000E+20
  9
$PEXTMAX
 10
-1.0000000000000000E+20
 20
-1.0000000000000000E+20
 30
-1.0000000000000000E+20
  9
$PLIMMIN
 10
0.0
 20
0.0
  9
$PLIMMAX
 10
420.0
 20
297.0
  9
$UNITMODE
 70
     0
  9
$VISRETAIN
 70
     1
  9
$PLINEGEN
 70
     0
  9
$PSLTSCALE
 70
     1
  0
ENDSEC
  0
SECTION
  2
TABLES
  0
TABLE
  2
VPORT
 70
     1
  0
VPORT
  2
*ACTIVE
 70
     0
 10
0.0
 20
0.0
 11
1.0
 21
1.0
 12
490.0193391765366755
 22
605.1538196943273533
 13
0.0
 23
0.0
 14
10.0
 24
10.0
 15
10.0
 25
10.0
 16
0.0
 26
0.0
 36
1.0
 17
0.0
 27
0.0
 37
0.0
 40
133.8390652801276985
 41
2.498684210526315
 42
50.0
 43
0.0
 44
0.0
 50
0.0
 51
0.0
 71
     0
 72
  2000
 73
     1
 74
     3
 75
     0
 76
     0
 77
     0
 78
     0
  0
ENDTAB
  0
TABLE
  2
LTYPE
 70
     6
  0
LTYPE
  2
CONTINUOUS
 70
     0
  3
Solid line
 72
    65
 73
     0
 40
0.0
  0
LTYPE
  2
HIDDEN
 70
     0
  3
Hidden __ __ __ __ __ __ __ __ __ __ __ __ __ __
 72
    65
 73
     2
 40
1.905
 49
1.27
 49
-0.635
  0
LTYPE
  2
PHANTOM
 70
     0
  3
Phantom ______  __  __  ______  __  __  ______
 72
    65
 73
     6
 40
12.6999999999999993
 49
6.3499999999999988
 49
-1.27
 49
1.27
 49
-1.27
 49
1.27
 49
-1.27
  0
LTYPE
  2
CENTER
 70
     0
  3
Center ____ _ ____ _ ____ _ ____ _ ____ _ ____
 72
    65
 73
     4
 40
10.1600000000000001
 49
6.3499999999999988
 49
-1.27
 49
1.27
 49
-1.27
  0
LTYPE
  2
CENTERX2
 70
     0
  3
Center (2x) ________  __  ________  __  _____
 72
    65
 73
     4
 40
20.3200000000000003
 49
12.6999999999999993
 49
-2.54
 49
2.54
 49
-2.54
  0
LTYPE
  2
DOT2
 70
     0
  3
Dot (.5x) ........................................
 72
    65
 73
     2
 40
0.635
 49
0.0
 49
-0.635
  0
ENDTAB
  0
TABLE
  2
LAYER
 70
    18
  0
LAYER
  2
0
 70
     0
 62
     7
  6
CONTINUOUS
  0
LAYER
  2
SLD-0
 70
     0
 62
     7
  6
CONTINUOUS
  0
LAYER
  2
10
 70
     0
 62
     7
  6
CONTINUOUS
  0
LAYER
  2
5
 70
     0
 62
     7
  6
CONTINUOUS
  0
LAYER
  2
9
 70
     0
 62
     7
  6
CONTINUOUS
  0
LAYER
  2
轮廓实线层
 70
     0
 62
     7
  6
CONTINUOUS
  0
LAYER
  2
细线层
 70
     0
 62
     4
  6
CONTINUOUS
  0
LAYER
  2
中心线层
 70
     0
 62
     1
  6
CENTERX2
  0
LAYER
  2
虚线层
 70
     0
 62
     6
  6
HIDDEN
  0
LAYER
  2
剖面线层
 70
     0
 62
     2
  6
CONTINUOUS
  0
LAYER
  2
文字层
 70
     0
 62
     3
  6
CONTINUOUS
  0
LAYER
  2
标注层
 70
     0
 62
     4
  6
CONTINUOUS
  0
LAYER
  2
符号标注层
 70
     0
 62
    31
  6
CONTINUOUS
  0
LAYER
  2
双点划线层
 70
     0
 62
     6
  6
PHANTOM
  0
LAYER
  2
粗实线层
 70
     0
 62
     7
  6
CONTINUOUS
  0
LAYER
  2
细实线层
 70
     0
 62
     7
  6
CONTINUOUS
  0
LAYER
  2
点划线层
 70
     0
 62
     7
  6
CENTER
  0
LAYER
  2
图框
 70
     0
 62
     7
  6
CONTINUOUS
  0
ENDTAB
  0
TABLE
  2
STYLE
 70
     7
  0
STYLE
  2
STANDARD
 70
     0
 40
0.0
 41
1.0
 50
0.0
 71
     0
 42
3.5
  3
txt
  4

  0
STYLE
  2
SLDTEXTSTYLE0
 70
     0
 40
0.0
 41
0.7
 50
0.0
 71
     0
 42
3.5
  3
TXT
  4
bigfont
  0
STYLE
  2
SLDTEXTSTYLE1
 70
     0
 40
0.0
 41
0.6
 50
0.0
 71
     0
 42
3.5
  3
TXT
  4
bigfont
  0
STYLE
  2
SLDTEXTSTYLE2
 70
     0
 40
0.0
 41
0.6142857142857144
 50
0.0
 71
     0
 42
3.5
  3
TXT
  4
bigfont
  0
STYLE
  2
SLDTEXTSTYLE3
 70
     0
 40
0.0
 41
0.62
 50
0.0
 71
     0
 42
3.5
  3
TXT
  4
bigfont
  0
STYLE
  2
SLDTEXTSTYLE4
 70
     0
 40
0.0
 41
0.5666666666666668
 50
0.0
 71
     0
 42
3.5
  3
TXT
  4
bigfont
  0
STYLE
  2
SLDTEXTSTYLE5
 70
     0
 40
0.0
 41
0.7
 50
0.0
 71
     0
 42
3.5
  3
TXT
  4

  0
ENDTAB
  0
TABLE
  2
VIEW
 70
     0
  0
ENDTAB
  0
TABLE
  2
UCS
 70
     0
  0
ENDTAB
  0
TABLE
  2
APPID
 70
     3
  0
APPID
  2
ACAD
 70
     0
  0
APPID
  2
ACAD_NAV_VCDISPLAY
 70
     0
  0
APPID
  2
ACAD_MLEADERVER
 70
     0
  0
ENDTAB
  0
TABLE
  2
DIMSTYLE
 70
     1
  0
DIMSTYLE
  2
ISO-25
 70
     0
  3

  4

  5

  6

  7

 40
1.0
 41
2.5
 42
0.625
 43
3.75
 44
1.25
 45
0.0
 46
0.0
 47
0.0
 48
0.0
140
2.5
141
2.5
142
0.0
143
0.03937007874016
144
1.0
145
0.0
146
1.0
147
0.625
 71
     0
 72
     0
 73
     0
 74
     0
 75
     0
 76
     0
 77
     1
 78
     8
170
     0
171
     3
172
     1
173
     0
174
     0
175
     0
176
     0
177
     0
178
     0
  0
ENDTAB
  0
ENDSEC
  0
SECTION
  2
BLOCKS
  0
BLOCK
  8
0
  2
$MODEL_SPACE
 70
     0
 10
0.0
 20
0.0
 30
0.0
  3
$MODEL_SPACE
  1

  0
ENDBLK
  5
21
  8
0
  0
BLOCK
 67
     1
  8
0
  2
$PAPER_SPACE
 70
     0
 10
0.0
 20
0.0
 30
0.0
  3
$PAPER_SPACE
  1

  0
ENDBLK
  5
1D
 67
     1
  8
0
  0
BLOCK
  8
0
  2
SW_CENTERMARKSYMBOL_0
 70
     0
 10
0.0
 20
0.0
 30
0.0
  3
SW_CENTERMARKSYMBOL_0
  1

  0
LINE
  5
197
  8
10
 62
     0
 10
0.0
 20
0.0
 30
0.0
 11
0.0
 21
5.0000000000000044
 31
0.0
  0
LINE
  5
198
  8
10
 62
     0
 10
0.0
 20
0.0
 30
0.0
 11
-5.0000000000000044
 21
0.0
 31
0.0
  0
LINE
  5
199
  8
10
 62
     0
 10
0.0
 20
0.0
 30
0.0
 11
0.0
 21
-5.0000000000000044
 31
0.0
  0
LINE
  5
19A
  8
10
 62
     0
 10
0.0
 20
0.0
 30
0.0
 11
4.9999999999998934
 21
0.0
 31
0.0
  0
LINE
  5
19B
  8
10
 62
     0
 10
0.0
 20
5.0000000000000044
 30
0.0
 11
0.0
 21
8.0000000000000071
 31
0.0
  0
LINE
  5
19C
  8
10
 62
     0
 10
-5.0000000000000044
 20
0.0
 30
0.0
 11
-8.0000000000000071
 21
0.0
 31
0.0
  0
LINE
  5
19D
  8
10
 62
     0
 10
0.0
 20
-5.0000000000000044
 30
0.0
 11
0.0
 21
-8.0000000000000071
 31
0.0
  0
LINE
  5
19E
  8
10
 62
     0
 10
4.9999999999998934
 20
0.0
 30
0.0
 11
8.0000000000000071
 21
0.0
 31
0.0
  0
ENDBLK
  5
196
  8
0
  0
BLOCK
  8
0
  2
SW_CENTERMARKSYMBOL_1
 70
     0
 10
0.0
 20
0.0
 30
0.0
  3
SW_CENTERMARKSYMBOL_1
  1

  0
LINE
  5
1A3
  8
10
 62
     0
 10
0.0
 20
0.0
 30
0.0
 11
0.0
 21
5.0000000000000044
 31
0.0
  0
LINE
  5
1A4
  8
10
 62
     0
 10
0.0
 20
0.0
 30
0.0
 11
-5.0000000000000044
 21
0.0
 31
0.0
  0
LINE
  5
1A5
  8
10
 62
     0
 10
0.0
 20
0.0
 30
0.0
 11
0.0
 21
-4.9999999999999476
 31
0.0
  0
LINE
  5
1A6
  8
10
 62
     0
 10
0.0
 20
0.0
 30
0.0
 11
5.0000000000000044
 21
0.0
 31
0.0
  0
LINE
  5
1A7
  8
10
 62
     0
 10
0.0
 20
5.0000000000000044
 30
0.0
 11
0.0
 21
8.0000000000000071
 31
0.0
  0
LINE
  5
1A8
  8
10
 62
     0
 10
-5.0000000000000044
 20
0.0
 30
0.0
 11
-8.0000000000000071
 21
0.0
 31
0.0
  0
LINE
  5
1A9
  8
10
 62
     0
 10
0.0
 20
-4.9999999999999476
 30
0.0
 11
0.0
 21
-8.0000000000000071
 31
0.0
  0
LINE
  5
1AA
  8
10
 62
     0
 10
5.0000000000000044
 20
0.0
 30
0.0
 11
8.0000000000000071
 21
0.0
 31
0.0
  0
ENDBLK
  5
1A2
  8
0
  0
BLOCK
  8
0
  2
SW_CENTERMARKSYMBOL_2
 70
     0
 10
0.0
 20
0.0
 30
0.0
  3
SW_CENTERMARKSYMBOL_2
  1

  0
LINE
  5
1AF
  8
10
 62
     0
 10
0.0
 20
0.0
 30
0.0
 11
0.0
 21
5.0000000000000044
 31
0.0
  0
LINE
  5
1B0
  8
10
 62
     0
 10
0.0
 20
0.0
 30
0.0
 11
-5.0000000000000044
 21
0.0
 31
0.0
  0
LINE
  5
1B1
  8
10
 62
     0
 10
0.0
 20
0.0
 30
0.0
 11
0.0
 21
-5.0000000000000044
 31
0.0
  0
LINE
  5
1B2
  8
10
 62
     0
 10
0.0
 20
0.0
 30
0.0
 11
4.9999999999998934
 21
0.0
 31
0.0
  0
LINE
  5
1B3
  8
10
 62
     0
 10
0.0
 20
5.0000000000000044
 30
0.0
 11
0.0
 21
8.0000000000000071
 31
0.0
  0
LINE
  5
1B4
  8
10
 62
     0
 10
-5.0000000000000044
 20
0.0
 30
0.0
 11
-8.0000000000000071
 21
0.0
 31
0.0
  0
LINE
  5
1B5
  8
10
 62
     0
 10
0.0
 20
-5.0000000000000044
 30
0.0
 11
0.0
 21
-8.0000000000000071
 31
0.0
  0
LINE
  5
1B6
  8
10
 62
     0
 10
4.9999999999998934
 20
0.0
 30
0.0
 11
8.0000000000000071
 21
0.0
 31
0.0
  0
ENDBLK
  5
1AE
  8
0
  0
BLOCK
  8
0
  2
SW_CENTERMARKSYMBOL_3
 70
     0
 10
0.0
 20
0.0
 30
0.0
  3
SW_CENTERMARKSYMBOL_3
  1

  0
LINE
  5
1BB
  8
10
 62
     0
 10
0.0
 20
0.0
 30
0.0
 11
0.0
 21
5.0000000000000044
 31
0.0
  0
LINE
  5
1BC
  8
10
 62
     0
 10
0.0
 20
0.0
 30
0.0
 11
-5.0000000000000044
 21
0.0
 31
0.0
  0
LINE
  5
1BD
  8
10
 62
     0
 10
0.0
 20
0.0
 30
0.0
 11
0.0
 21
-5.0000000000000044
 31
0.0
  0
LINE
  5
1BE
  8
10
 62
     0
 10
0.0
 20
0.0
 30
0.0
 11
5.0000000000000044
 21
0.0
 31
0.0
  0
LINE
  5
1BF
  8
10
 62
     0
 10
0.0
 20
5.0000000000000044
 30
0.0
 11
0.0
 21
8.0000000000000071
 31
0.0
  0
LINE
  5
1C0
  8
10
 62
     0
 10
-5.0000000000000044
 20
0.0
 30
0.0
 11
-8.0000000000000071
 21
0.0
 31
0.0
  0
LINE
  5
1C1
  8
10
 62
     0
 10
0.0
 20
-5.0000000000000044
 30
0.0
 11
0.0
 21
-8.0000000000000071
 31
0.0
  0
LINE
  5
1C2
  8
10
 62
     0
 10
5.0000000000000044
 20
0.0
 30
0.0
 11
8.0000000000000071
 21
0.0
 31
0.0
  0
ENDBLK
  5
1BA
  8
0
  0
BLOCK
  8
0
  2
SW_CENTERMARKSYMBOL_4
 70
     0
 10
0.0
 20
0.0
 30
0.0
  3
SW_CENTERMARKSYMBOL_4
  1

  0
LINE
  5
1C7
  8
10
 62
     0
 10
0.0
 20
0.0
 30
0.0
 11
0.0
 21
5.0000000000000044
 31
0.0
  0
LINE
  5
1C8
  8
10
 62
     0
 10
0.0
 20
0.0
 30
0.0
 11
-5.0000000000000044
 21
0.0
 31
0.0
  0
LINE
  5
1C9
  8
10
 62
     0
 10
0.0
 20
0.0
 30
0.0
 11
0.0
 21
-5.0000000000000044
 31
0.0
  0
LINE
  5
1CA
  8
10
 62
     0
 10
0.0
 20
0.0
 30
0.0
 11
5.0000000000000044
 21
0.0
 31
0.0
  0
LINE
  5
1CB
  8
10
 62
     0
 10
0.0
 20
5.0000000000000044
 30
0.0
 11
0.0
 21
8.0000000000000071
 31
0.0
  0
LINE
  5
1CC
  8
10
 62
     0
 10
-5.0000000000000044
 20
0.0
 30
0.0
 11
-8.0000000000000071
 21
0.0
 31
0.0
  0
LINE
  5
1CD
  8
10
 62
     0
 10
0.0
 20
-5.0000000000000044
 30
0.0
 11
0.0
 21
-8.0000000000000071
 31
0.0
  0
LINE
  5
1CE
  8
10
 62
     0
 10
5.0000000000000044
 20
0.0
 30
0.0
 11
8.0000000000000071
 21
0.0
 31
0.0
  0
ENDBLK
  5
1C6
  8
0
  0
BLOCK
  8
0
  2
SW_CENTERMARKSYMBOL_5
 70
     0
 10
0.0
 20
0.0
 30
0.0
  3
SW_CENTERMARKSYMBOL_5
  1

  0
LINE
  5
1D3
  8
10
 62
     0
 10
0.0
 20
0.0
 30
0.0
 11
0.0
 21
5.0000000000000044
 31
0.0
  0
LINE
  5
1D4
  8
10
 62
     0
 10
0.0
 20
0.0
 30
0.0
 11
-4.9999999999998934
 21
0.0
 31
0.0
  0
LINE
  5
1D5
  8
10
 62
     0
 10
0.0
 20
0.0
 30
0.0
 11
0.0
 21
-5.0000000000000044
 31
0.0
  0
LINE
  5
1D6
  8
10
 62
     0
 10
0.0
 20
0.0
 30
0.0
 11
5.0000000000000044
 21
0.0
 31
0.0
  0
LINE
  5
1D7
  8
10
 62
     0
 10
0.0
 20
5.0000000000000044
 30
0.0
 11
0.0
 21
8.0000000000000071
 31
0.0
  0
LINE
  5
1D8
  8
10
 62
     0
 10
-4.9999999999998934
 20
0.0
 30
0.0
 11
-8.0000000000000071
 21
0.0
 31
0.0
  0
LINE
  5
1D9
  8
10
 62
     0
 10
0.0
 20
-5.0000000000000044
 30
0.0
 11
0.0
 21
-8.0000000000000071
 31
0.0
  0
LINE
  5
1DA
  8
10
 62
     0
 10
5.0000000000000044
 20
0.0
 30
0.0
 11
8.0000000000000071
 21
0.0
 31
0.0
  0
ENDBLK
  5
1D2
  8
0
  0
BLOCK
  8
0
  2
SW_CENTERMARKSYMBOL_6
 70
     0
 10
0.0
 20
0.0
 30
0.0
  3
SW_CENTERMARKSYMBOL_6
  1

  0
LINE
  5
1DF
  8
10
 62
     0
 10
0.0
 20
0.0
 30
0.0
 11
0.0
 21
5.0000000000000044
 31
0.0
  0
LINE
  5
1E0
  8
10
 62
     0
 10
0.0
 20
0.0
 30
0.0
 11
-5.0000000000000044
 21
0.0
 31
0.0
  0
LINE
  5
1E1
  8
10
 62
     0
 10
0.0
 20
0.0
 30
0.0
 11
0.0
 21
-5.0000000000000044
 31
0.0
  0
LINE
  5
1E2
  8
10
 62
     0
 10
0.0
 20
0.0
 30
0.0
 11
5.0000000000000044
 21
0.0
 31
0.0
  0
LINE
  5
1E3
  8
10
 62
     0
 10
0.0
 20
5.0000000000000044
 30
0.0
 11
0.0
 21
8.0000000000000071
 31
0.0
  0
LINE
  5
1E4
  8
10
 62
     0
 10
-5.0000000000000044
 20
0.0
 30
0.0
 11
-8.0000000000000071
 21
0.0
 31
0.0
  0
LINE
  5
1E5
  8
10
 62
     0
 10
0.0
 20
-5.0000000000000044
 30
0.0
 11
0.0
 21
-8.0000000000000071
 31
0.0
  0
LINE
  5
1E6
  8
10
 62
     0
 10
5.0000000000000044
 20
0.0
 30
0.0
 11
8.0000000000000071
 21
0.0
 31
0.0
  0
ENDBLK
  5
1DE
  8
0
  0
BLOCK
  8
0
  2
SW_CENTERMARKSYMBOL_7
 70
     0
 10
0.0
 20
0.0
 30
0.0
  3
SW_CENTERMARKSYMBOL_7
  1

  0
LINE
  5
1EB
  8
10
 62
     0
 10
0.0
 20
0.0
 30
0.0
 11
0.0
 21
5.0000000000000044
 31
0.0
  0
LINE
  5
1EC
  8
10
 62
     0
 10
0.0
 20
0.0
 30
0.0
 11
-5.0000000000000044
 21
0.0
 31
0.0
  0
LINE
  5
1ED
  8
10
 62
     0
 10
0.0
 20
0.0
 30
0.0
 11
0.0
 21
-5.0000000000000044
 31
0.0
  0
LINE
  5
1EE
  8
10
 62
     0
 10
0.0
 20
0.0
 30
0.0
 11
5.0000000000000044
 21
0.0
 31
0.0
  0
LINE
  5
1EF
  8
10
 62
     0
 10
0.0
 20
5.0000000000000044
 30
0.0
 11
0.0
 21
8.0000000000000071
 31
0.0
  0
LINE
  5
1F0
  8
10
 62
     0
 10
-5.0000000000000044
 20
0.0
 30
0.0
 11
-8.0000000000000071
 21
0.0
 31
0.0
  0
LINE
  5
1F1
  8
10
 62
     0
 10
0.0
 20
-5.0000000000000044
 30
0.0
 11
0.0
 21
-8.0000000000000071
 31
0.0
  0
LINE
  5
1F2
  8
10
 62
     0
 10
5.0000000000000044
 20
0.0
 30
0.0
 11
8.0000000000000071
 21
0.0
 31
0.0
  0
ENDBLK
  5
1EA
  8
0
  0
BLOCK
  8
0
  2
SW_CENTERMARKSYMBOL_8
 70
     0
 10
0.0
 20
0.0
 30
0.0
  3
SW_CENTERMARKSYMBOL_8
  1

  0
LINE
  5
1F7
  8
10
 62
     0
 10
0.0
 20
0.0
 30
0.0
 11
0.0
 21
5.0000000000000044
 31
0.0
  0
LINE
  5
1F8
  8
10
 62
     0
 10
0.0
 20
0.0
 30
0.0
 11
-5.0000000000000044
 21
0.0
 31
0.0
  0
LINE
  5
1F9
  8
10
 62
     0
 10
0.0
 20
0.0
 30
0.0
 11
0.0
 21
-5.0000000000000044
 31
0.0
  0
LINE
  5
1FA
  8
10
 62
     0
 10
0.0
 20
0.0
 30
0.0
 11
5.0000000000000044
 21
0.0
 31
0.0
  0
LINE
  5
1FB
  8
10
 62
     0
 10
0.0
 20
5.0000000000000044
 30
0.0
 11
0.0
 21
8.0000000000000071
 31
0.0
  0
LINE
  5
1FC
  8
10
 62
     0
 10
-5.0000000000000044
 20
0.0
 30
0.0
 11
-8.0000000000000071
 21
0.0
 31
0.0
  0
LINE
  5
1FD
  8
10
 62
     0
 10
0.0
 20
-5.0000000000000044
 30
0.0
 11
0.0
 21
-8.0000000000000071
 31
0.0
  0
LINE
  5
1FE
  8
10
 62
     0
 10
5.0000000000000044
 20
0.0
 30
0.0
 11
8.0000000000000071
 21
0.0
 31
0.0
  0
ENDBLK
  5
1F6
  8
0
  0
BLOCK
  8
0
  2
SW_CENTERMARKSYMBOL_9
 70
     0
 10
0.0
 20
0.0
 30
0.0
  3
SW_CENTERMARKSYMBOL_9
  1

  0
LINE
  5
203
  8
10
 62
     0
 10
0.0
 20
0.0
 30
0.0
 11
0.0
 21
5.0000000000000044
 31
0.0
  0
LINE
  5
204
  8
10
 62
     0
 10
0.0
 20
0.0
 30
0.0
 11
-4.9999999999998934
 21
0.0
 31
0.0
  0
LINE
  5
205
  8
10
 62
     0
 10
0.0
 20
0.0
 30
0.0
 11
0.0
 21
-5.0000000000000044
 31
0.0
  0
LINE
  5
206
  8
10
 62
     0
 10
0.0
 20
0.0
 30
0.0
 11
5.0000000000000044
 21
0.0
 31
0.0
  0
LINE
  5
207
  8
10
 62
     0
 10
0.0
 20
5.0000000000000044
 30
0.0
 11
0.0
 21
8.0000000000000071
 31
0.0
  0
LINE
  5
208
  8
10
 62
     0
 10
-4.9999999999998934
 20
0.0
 30
0.0
 11
-8.0000000000000071
 21
0.0
 31
0.0
  0
LINE
  5
209
  8
10
 62
     0
 10
0.0
 20
-5.0000000000000044
 30
0.0
 11
0.0
 21
-8.0000000000000071
 31
0.0
  0
LINE
  5
20A
  8
10
 62
     0
 10
5.0000000000000044
 20
0.0
 30
0.0
 11
8.0000000000000071
 21
0.0
 31
0.0
  0
ENDBLK
  5
202
  8
0
  0
ENDSEC
  0
SECTION
  2
ENTITIES
  0
CIRCLE
  5
17E
  8
0
  6
CONTINUOUS
 62
     7
 10
471.8411048175656788
 20
495.938959146107095
 30
0.0
 40
1.5
  0
CIRCLE
  5
17F
  8
0
  6
CONTINUOUS
 62
     7
 10
447.8411048175656788
 20
525.938959146107095
 30
0.0
 40
1.5
  0
CIRCLE
  5
180
  8
0
  6
CONTINUOUS
 62
     7
 10
471.8411048175656788
 20
525.938959146107095
 30
0.0
 40
1.5
  0
CIRCLE
  5
181
  8
0
  6
CONTINUOUS
 62
     7
 10
447.8411048175656788
 20
495.938959146107095
 30
0.0
 40
1.5
  0
CIRCLE
  5
182
  8
0
  6
CONTINUOUS
 62
     7
 10
456.8411048175657925
 20
618.5296338253895101
 30
0.0
 40
1.5
  0
CIRCLE
  5
183
  8
0
  6
CONTINUOUS
 62
     7
 10
426.8411048175656788
 20
618.5296338253895101
 30
0.0
 40
1.5
  0
CIRCLE
  5
184
  8
0
  6
CONTINUOUS
 62
     7
 10
413.8411048175656788
 20
618.5296338253895101
 30
0.0
 40
1.5
  0
CIRCLE
  5
185
  8
0
  6
CONTINUOUS
 62
     7
 10
469.8411048175657925
 20
618.5296338253895101
 30
0.0
 40
1.5
  0
ARC
  5
186
  8
0
  6
CONTINUOUS
 62
     7
 10
419.8411048175657925
 20
473.9389591461072087
 30
0.0
 40
3.0
 50
180.0
 51
270.0
  0
LINE
  5
187
  8
0
  6
CONTINUOUS
 62
     7
 10
416.8411048175656788
 20
569.6963184589876619
 30
0.0
 11
416.8411048175656788
 21
473.9389591461072087
 31
0.0
  0
ARC
  5
188
  8
0
  6
CONTINUOUS
 62
     7
 10
413.8411048175656788
 20
569.6963184589877756
 30
0.0
 40
3.0
 50
0.0
 51
45.0
  0
ARC
  5
189
  8
0
  6
CONTINUOUS
 62
     7
 10
399.8411048175657925
 20
592.1815998332260733
 30
0.0
 40
3.0000000000000031
 50
180.0
 51
225.0
  0
ARC
  5
18A
  8
0
  6
CONTINUOUS
 62
     7
 10
399.8411048175657925
 20
622.9389591461072087
 30
0.0
 40
3.0
 50
90.0
 51
180.0
  0
ARC
  5
18B
  8
0
  6
CONTINUOUS
 62
     7
 10
483.8411048175656788
 20
622.9389591461072087
 30
0.0
 40
3.0
 50
0.0
 51
90.0
  0
ARC
  5
18C
  8
0
  6
CONTINUOUS
 62
     7
 10
483.8411048175656788
 20
473.9389591461072087
 30
0.0
 40
3.0
 50
270.0
 51
0.0
  0
CIRCLE
  5
18D
  8
0
  6
CONTINUOUS
 62
     7
 10
434.3411048175656788
 20
478.9389591461072087
 30
0.0
 40
1.5
  0
CIRCLE
  5
18E
  8
0
  6
CONTINUOUS
 62
     7
 10
469.3411048175656788
 20
478.9389591461072087
 30
0.0
 40
1.5
  0
LINE
  5
18F
  8
0
  6
CONTINUOUS
 62
     7
 10
397.7197844740061896
 20
590.0602794896665273
 30
0.0
 11
415.9624251611253953
 21
571.8176388025474353
 31
0.0
  0
LINE
  5
190
  8
0
  6
CONTINUOUS
 62
     7
 10
396.8411048175657925
 20
622.9389591461072087
 30
0.0
 11
396.8411048175657925
 21
592.1815998332260733
 31
0.0
  0
LINE
  5
191
  8
0
  6
CONTINUOUS
 62
     7
 10
483.8411048175656788
 20
625.9389591461072087
 30
0.0
 11
399.8411048175657925
 21
625.9389591461072087
 31
0.0
  0
LINE
  5
192
  8
0
  6
CONTINUOUS
 62
     7
 10
486.8411048175657925
 20
473.9389591461072087
 30
0.0
 11
486.8411048175657925
 21
622.9389591461072087
 31
0.0
  0
LINE
  5
193
  8
0
  6
CONTINUOUS
 62
     7
 10
419.8411048175657925
 20
470.938959146107095
 30
0.0
 11
483.8411048175656788
 21
470.938959146107095
 31
0.0
  0
ENDSEC
  0
EOF
